  0
SECTION
  2
HEADER
  9
$ACADVER
  1
AC1032
  9
$ACADMAINTVER
 90
      251
  9
$DWGCODEPAGE
  3
ANSI_1252
  9
$REQUIREDVERSIONS
160
                 0
  9
$INSBASE
 10
0.0
 20
0.0
 30
0.0
  9
$EXTMIN
 10
1.000000000000000E+20
 20
1.000000000000000E+20
 30
1.000000000000000E+20
  9
$EXTMAX
 10
-1.000000000000000E+20
 20
-1.000000000000000E+20
 30
-1.000000000000000E+20
  9
$LIMMIN
 10
0.0
 20
0.0
  9
$LIMMAX
 10
12.0
 20
9.0
  9
$ORTHOMODE
 70
     0
  9
$REGENMODE
 70
     1
  9
$FILLMODE
 70
     1
  9
$QTEXTMODE
 70
     0
  9
$MIRRTEXT
 70
     0
  9
$LTSCALE
 40
1.0
  9
$ATTMODE
 70
     1
  9
$TEXTSIZE
 40
0.2
  9
$TRACEWID
 40
0.05
  9
$TEXTSTYLE
  7
Standard
  9
$CLAYER
  8
0
  9
$CELTYPE
  6
ByLayer
  9
$CECOLOR
 62
   256
  9
$CELTSCALE
 40
1.0
  9
$DISPSILH
 70
     0
  9
$DIMSCALE
 40
1.0
  9
$DIMASZ
 40
0.18
  9
$DIMEXO
 40
0.0625
  9
$DIMDLI
 40
0.38
  9
$DIMRND
 40
0.0
  9
$DIMDLE
 40
0.0
  9
$DIMEXE
 40
0.18
  9
$DIMTP
 40
0.0
  9
$DIMTM
 40
0.0
  9
$DIMTXT
 40
0.18
  9
$DIMCEN
 40
0.09
  9
$DIMTSZ
 40
0.0
  9
$DIMTOL
 70
     0
  9
$DIMLIM
 70
     0
  9
$DIMTIH
 70
     1
  9
$DIMTOH
 70
     1
  9
$DIMSE1
 70
     0
  9
$DIMSE2
 70
     0
  9
$DIMTAD
 70
     0
  9
$DIMZIN
 70
     0
  9
$DIMBLK
  1

  9
$DIMASO
 70
     1
  9
$DIMSHO
 70
     1
  9
$DIMPOST
  1

  9
$DIMAPOST
  1

  9
$DIMALT
 70
     0
  9
$DIMALTD
 70
     2
  9
$DIMALTF
 40
25.4
  9
$DIMLFAC
 40
1.0
  9
$DIMTOFL
 70
     0
  9
$DIMTVP
 40
0.0
  9
$DIMTIX
 70
     0
  9
$DIMSOXD
 70
     0
  9
$DIMSAH
 70
     0
  9
$DIMBLK1
  1

  9
$DIMBLK2
  1

  9
$DIMSTYLE
  2
Standard
  9
$DIMCLRD
 70
     0
  9
$DIMCLRE
 70
     0
  9
$DIMCLRT
 70
     0
  9
$DIMTFAC
 40
1.0
  9
$DIMGAP
 40
0.09
  9
$DIMJUST
 70
     0
  9
$DIMSD1
 70
     0
  9
$DIMSD2
 70
     0
  9
$DIMTOLJ
 70
     1
  9
$DIMTZIN
 70
     0
  9
$DIMALTZ
 70
     0
  9
$DIMALTTZ
 70
     0
  9
$DIMUPT
 70
     0
  9
$DIMDEC
 70
     4
  9
$DIMTDEC
 70
     4
  9
$DIMALTU
 70
     2
  9
$DIMALTTD
 70
     2
  9
$DIMTXSTY
  7
Standard
  9
$DIMAUNIT
 70
     0
  9
$DIMADEC
 70
     0
  9
$DIMALTRND
 40
0.0
  9
$DIMAZIN
 70
     0
  9
$DIMDSEP
 70
    46
  9
$DIMATFIT
 70
     3
  9
$DIMFRAC
 70
     0
  9
$DIMLDRBLK
  1

  9
$DIMLUNIT
 70
     2
  9
$DIMLWD
 70
    -2
  9
$DIMLWE
 70
    -2
  9
$DIMTMOVE
 70
     0
  9
$DIMFXL
 40
1.0
  9
$DIMFXLON
 70
     0
  9
$DIMJOGANG
 40
0.7853981633974483
  9
$DIMTFILL
 70
     0
  9
$DIMTFILLCLR
 70
     0
  9
$DIMARCSYM
 70
     0
  9
$DIMLTYPE
  6

  9
$DIMLTEX1
  6

  9
$DIMLTEX2
  6

  9
$DIMTXTDIRECTION
 70
     0
  9
$LUNITS
 70
     2
  9
$LUPREC
 70
     4
  9
$SKETCHINC
 40
0.1
  9
$FILLETRAD
 40
0.0
  9
$AUNITS
 70
     0
  9
$AUPREC
 70
     0
  9
$MENU
  1
.
  9
$ELEVATION
 40
0.0
  9
$PELEVATION
 40
0.0
  9
$THICKNESS
 40
0.0
  9
$LIMCHECK
 70
     0
  9
$CHAMFERA
 40
0.0
  9
$CHAMFERB
 40
0.0
  9
$CHAMFERC
 40
0.0
  9
$CHAMFERD
 40
0.0
  9
$SKPOLY
 70
     0
  9
$TDCREATE
 40
2459897.698171296
  9
$TDUCREATE
 40
2459897.656504629
  9
$TDUPDATE
 40
2459897.698171296
  9
$TDUUPDATE
 40
2459897.656504629
  9
$TDINDWG
 40
0.0000000000
  9
$TDUSRTIMER
 40
0.0000000000
  9
$USRTIMER
 70
     1
  9
$ANGBASE
 50
0.0
  9
$ANGDIR
 70
     0
  9
$PDMODE
 70
     0
  9
$PDSIZE
 40
0.0
  9
$PLINEWID
 40
0.0
  9
$SPLFRAME
 70
     0
  9
$SPLINETYPE
 70
     6
  9
$SPLINESEGS
 70
     8
  9
$HANDSEED
  5
9B
  9
$SURFTAB1
 70
     6
  9
$SURFTAB2
 70
     6
  9
$SURFTYPE
 70
     6
  9
$SURFU
 70
     6
  9
$SURFV
 70
     6
  9
$UCSBASE
  2

  9
$UCSNAME
  2

  9
$UCSORG
 10
0.0
 20
0.0
 30
0.0
  9
$UCSXDIR
 10
1.0
 20
0.0
 30
0.0
  9
$UCSYDIR
 10
0.0
 20
1.0
 30
0.0
  9
$UCSORTHOREF
  2

  9
$UCSORTHOVIEW
 70
     0
  9
$UCSORGTOP
 10
0.0
 20
0.0
 30
0.0
  9
$UCSORGBOTTOM
 10
0.0
 20
0.0
 30
0.0
  9
$UCSORGLEFT
 10
0.0
 20
0.0
 30
0.0
  9
$UCSORGRIGHT
 10
0.0
 20
0.0
 30
0.0
  9
$UCSORGFRONT
 10
0.0
 20
0.0
 30
0.0
  9
$UCSORGBACK
 10
0.0
 20
0.0
 30
0.0
  9
$PUCSBASE
  2

  9
$PUCSNAME
  2

  9
$PUCSORG
 10
0.0
 20
0.0
 30
0.0
  9
$PUCSXDIR
 10
1.0
 20
0.0
 30
0.0
  9
$PUCSYDIR
 10
0.0
 20
1.0
 30
0.0
  9
$PUCSORTHOREF
  2

  9
$PUCSORTHOVIEW
 70
     0
  9
$PUCSORGTOP
 10
0.0
 20
0.0
 30
0.0
  9
$PUCSORGBOTTOM
 10
0.0
 20
0.0
 30
0.0
  9
$PUCSORGLEFT
 10
0.0
 20
0.0
 30
0.0
  9
$PUCSORGRIGHT
 10
0.0
 20
0.0
 30
0.0
  9
$PUCSORGFRONT
 10
0.0
 20
0.0
 30
0.0
  9
$PUCSORGBACK
 10
0.0
 20
0.0
 30
0.0
  9
$USERI1
 70
     0
  9
$USERI2
 70
     0
  9
$USERI3
 70
     0
  9
$USERI4
 70
     0
  9
$USERI5
 70
     0
  9
$USERR1
 40
0.0
  9
$USERR2
 40
0.0
  9
$USERR3
 40
0.0
  9
$USERR4
 40
0.0
  9
$USERR5
 40
0.0
  9
$WORLDVIEW
 70
     1
  9
$SHADEDGE
 70
     3
  9
$SHADEDIF
 70
    70
  9
$TILEMODE
 70
     1
  9
$MAXACTVP
 70
    64
  9
$PINSBASE
 10
0.0
 20
0.0
 30
0.0
  9
$PLIMCHECK
 70
     0
  9
$PEXTMIN
 10
1.000000000000000E+20
 20
1.000000000000000E+20
 30
1.000000000000000E+20
  9
$PEXTMAX
 10
-1.000000000000000E+20
 20
-1.000000000000000E+20
 30
-1.000000000000000E+20
  9
$PLIMMIN
 10
0.0
 20
0.0
  9
$PLIMMAX
 10
12.0
 20
9.0
  9
$UNITMODE
 70
     0
  9
$VISRETAIN
 70
     1
  9
$PLINEGEN
 70
     0
  9
$PSLTSCALE
 70
     1
  9
$TREEDEPTH
 70
  3020
  9
$CMLSTYLE
  2
Standard
  9
$CMLJUST
 70
     0
  9
$CMLSCALE
 40
1.0
  9
$PROXYGRAPHICS
 70
     1
  9
$MEASUREMENT
 70
     0
  9
$CELWEIGHT
370
    -1
  9
$ENDCAPS
280
     0
  9
$JOINSTYLE
280
     0
  9
$LWDISPLAY
290
     1
  9
$INSUNITS
 70
     4
  9
$HYPERLINKBASE
  1

  9
$STYLESHEET
  1

  9
$XEDIT
290
     1
  9
$CEPSNTYPE
380
     0
  9
$PSTYLEMODE
290
     1
  9
$FINGERPRINTGUID
  2
{1C2A102E-8D0B-9948-9DC4-2C87805F130D}
  9
$VERSIONGUID
  2
{0AC0F8D3-B5ED-924B-9F3B-D91DF4F09D7E}
  9
$EXTNAMES
290
     1
  9
$PSVPSCALE
 40
0.0
  9
$OLESTARTUP
290
     0
  9
$SORTENTS
280
   127
  9
$INDEXCTL
280
     0
  9
$HIDETEXT
280
     1
  9
$XCLIPFRAME
280
     2
  9
$HALOGAP
280
     0
  9
$OBSCOLOR
 70
   257
  9
$OBSLTYPE
280
     0
  9
$INTERSECTIONDISPLAY
280
     0
  9
$INTERSECTIONCOLOR
 70
   257
  9
$DIMASSOC
280
     2
  9
$PROJECTNAME
  1

  9
$CAMERADISPLAY
290
     0
  9
$LENSLENGTH
 40
50.0
  9
$CAMERAHEIGHT
 40
0.0
  9
$STEPSPERSEC
 40
2.0
  9
$STEPSIZE
 40
6.0
  9
$3DDWFPREC
 40
2.0
  9
$PSOLWIDTH
 40
0.25
  9
$PSOLHEIGHT
 40
4.0
  9
$LOFTANG1
 40
1.570796326794896
  9
$LOFTANG2
 40
1.570796326794896
  9
$LOFTMAG1
 40
0.0
  9
$LOFTMAG2
 40
0.0
  9
$LOFTPARAM
 70
     7
  9
$LOFTNORMALS
280
     1
  9
$LATITUDE
 40
37.795
  9
$LONGITUDE
 40
-122.394
  9
$NORTHDIRECTION
 40
0.0
  9
$TIMEZONE
 70
 -8000
  9
$LIGHTGLYPHDISPLAY
280
     1
  9
$TILEMODELIGHTSYNCH
280
     1
  9
$CMATERIAL
347
11
  9
$SOLIDHIST
280
     0
  9
$SHOWHIST
280
     1
  9
$DWFFRAME
280
     2
  9
$DGNFRAME
280
     0
  9
$REALWORLDSCALE
290
     1
  9
$INTERFERECOLOR
 62
     1
  9
$INTERFEREOBJVS
345
33
  9
$INTERFEREVPVS
346
30
  9
$CSHADOW
280
     0
  9
$SHADOWPLANELOCATION
 40
0.0
  0
ENDSEC
  0
SECTION
  2
CLASSES
  0
CLASS
  1
ACDBDICTIONARYWDFLT
  2
AcDbDictionaryWithDefault
  3
ObjectDBX Classes
 90
        0
 91
        1
280
     0
281
     0
  0
CLASS
  1
MATERIAL
  2
AcDbMaterial
  3
ObjectDBX Classes
 90
     1153
 91
        3
280
     0
281
     0
  0
CLASS
  1
VISUALSTYLE
  2
AcDbVisualStyle
  3
ObjectDBX Classes
 90
     4095
 91
       24
280
     0
281
     0
  0
CLASS
  1
SCALE
  2
AcDbScale
  3
ObjectDBX Classes
 90
     1153
 91
       17
280
     0
281
     0
  0
CLASS
  1
TABLESTYLE
  2
AcDbTableStyle
  3
ObjectDBX Classes
 90
     4095
 91
        1
280
     0
281
     0
  0
CLASS
  1
MLEADERSTYLE
  2
AcDbMLeaderStyle
  3
ACDB_MLEADERSTYLE_CLASS
 90
     4095
 91
        1
280
     0
281
     0
  0
CLASS
  1
ACDBSECTIONVIEWSTYLE
  2
AcDbSectionViewStyle
  3
ObjectDBX Classes
 90
     1025
 91
        1
280
     0
281
     0
  0
CLASS
  1
ACDBDETAILVIEWSTYLE
  2
AcDbDetailViewStyle
  3
ObjectDBX Classes
 90
     1025
 91
        1
280
     0
281
     0
  0
CLASS
  1
DICTIONARYVAR
  2
AcDbDictionaryVar
  3
ObjectDBX Classes
 90
        0
 91
        5
280
     0
281
     0
  0
CLASS
  1
CELLSTYLEMAP
  2
AcDbCellStyleMap
  3
ObjectDBX Classes
 90
     1152
 91
        1
280
     0
281
     0
  0
ENDSEC
  0
SECTION
  2
TABLES
  0
TABLE
  2
VPORT
  5
8
330
0
100
AcDbSymbolTable
 70
     1
  0
VPORT
  5
57
330
8
100
AcDbSymbolTableRecord
100
AcDbViewportTableRecord
  2
*Active
 70
     0
 10
0.0
 20
0.0
 11
1.0
 21
1.0
 12
0.0
 22
0.0
 13
0.0
 23
0.0
 14
1.0
 24
1.0
 15
0.0
 25
0.0
 16
0.0
 26
0.0
 36
1.0
 17
465.4484071280422
 27
-138.5356653503121
 37
0.0
 40
506.1149625047039
 41
1.801681421968929
 42
50.0
 43
0.0
 44
0.0
 50
0.0
 51
0.0
 71
     0
 72
   100
 73
     1
 74
     1
 75
     0
 76
     0
 77
     0
 78
     0
281
     0
 65
     1
110
0.0
120
0.0
130
0.0
111
1.0
121
0.0
131
0.0
112
0.0
122
1.0
132
0.0
 79
     0
146
0.0
 60
     3
 61
     5
292
     1
282
     1
141
0.0
142
0.0
 63
   250
421
  3355443
  0
ENDTAB
  0
TABLE
  2
LTYPE
  5
5
330
0
100
AcDbSymbolTable
 70
     1
  0
LTYPE
  5
5B
330
5
100
AcDbSymbolTableRecord
100
AcDbLinetypeTableRecord
  2
ByBlock
 70
     0
  3

 72
    65
 73
     0
 40
0.0
  0
LTYPE
  5
5C
330
5
100
AcDbSymbolTableRecord
100
AcDbLinetypeTableRecord
  2
ByLayer
 70
     0
  3

 72
    65
 73
     0
 40
0.0
  0
LTYPE
  5
5D
330
5
100
AcDbSymbolTableRecord
100
AcDbLinetypeTableRecord
  2
Continuous
 70
     0
  3
Solid line
 72
    65
 73
     0
 40
0.0
  0
ENDTAB
  0
TABLE
  2
LAYER
  5
2
330
0
100
AcDbSymbolTable
 70
     3
  0
LAYER
  5
54
330
2
100
AcDbSymbolTableRecord
100
AcDbLayerTableRecord
  2
0
 70
     0
 62
     7
  6
Continuous
370
    -3
390
F
347
21
348
0
  0
LAYER
  5
78
330
2
100
AcDbSymbolTableRecord
100
AcDbLayerTableRecord
  2
Ref
 70
     0
 62
     7
  6
Continuous
370
     0
390
F
347
21
348
0
  0
LAYER
  5
79
330
2
100
AcDbSymbolTableRecord
100
AcDbLayerTableRecord
  2
Raven
 70
     0
 62
     7
  6
Continuous
370
     0
390
F
347
21
348
0
  0
ENDTAB
  0
TABLE
  2
STYLE
  5
3
330
0
100
AcDbSymbolTable
 70
     2
  0
STYLE
  5
55
330
3
100
AcDbSymbolTableRecord
100
AcDbTextStyleTableRecord
  2
Standard
 70
     0
 40
0.0
 41
1.0
 50
0.0
 71
     0
 42
0.2
  3
txt
  4

  0
STYLE
  5
5A
330
3
100
AcDbSymbolTableRecord
100
AcDbTextStyleTableRecord
  2
Annotative
 70
     0
 40
0.0
 41
1.0
 50
0.0
 71
     0
 42
0.2
  3
txt
  4

1001
AcadAnnotative
1000
AnnotativeData
1002
{
1070
     1
1070
     1
1002
}
  0
ENDTAB
  0
TABLE
  2
VIEW
  5
6
330
0
100
AcDbSymbolTable
 70
     0
  0
ENDTAB
  0
TABLE
  2
UCS
  5
7
330
0
100
AcDbSymbolTable
 70
     0
  0
ENDTAB
  0
TABLE
  2
APPID
  5
9
330
0
100
AcDbSymbolTable
 70
     2
  0
APPID
  5
56
330
9
100
AcDbSymbolTableRecord
100
AcDbRegAppTableRecord
  2
ACAD
 70
     0
  0
APPID
  5
5E
330
9
100
AcDbSymbolTableRecord
100
AcDbRegAppTableRecord
  2
AcadAnnotative
 70
     0
  0
ENDTAB
  0
TABLE
  2
DIMSTYLE
  5
A
330
0
100
AcDbSymbolTable
 70
     2
100
AcDbDimStyleTable
 71
     0
  0
DIMSTYLE
105
58
330
A
100
AcDbSymbolTableRecord
100
AcDbDimStyleTableRecord
  2
Standard
 70
     0
340
55
  0
DIMSTYLE
105
59
330
A
100
AcDbSymbolTableRecord
100
AcDbDimStyleTableRecord
  2
Annotative
 70
     0
340
55
1001
AcadAnnotative
1000
AnnotativeData
1002
{
1070
     1
1070
     1
1002
}
  0
ENDTAB
  0
TABLE
  2
BLOCK_RECORD
  5
1
330
0
100
AcDbSymbolTable
 70
     1
  0
BLOCK_RECORD
  5
70
330
1
100
AcDbSymbolTableRecord
100
AcDbBlockTableRecord
  2
*Model_Space
340
73
 70
     0
280
     1
281
     0
  0
BLOCK_RECORD
  5
6C
330
1
100
AcDbSymbolTableRecord
100
AcDbBlockTableRecord
  2
*Paper_Space
340
6F
 70
     0
280
     1
281
     0
  0
BLOCK_RECORD
  5
74
330
1
100
AcDbSymbolTableRecord
100
AcDbBlockTableRecord
  2
*Paper_Space0
340
77
 70
     0
280
     1
281
     0
  0
ENDTAB
  0
ENDSEC
  0
SECTION
  2
BLOCKS
  0
BLOCK
  5
71
330
70
100
AcDbEntity
  8
0
100
AcDbBlockBegin
  2
*Model_Space
 70
     0
 10
0.0
 20
0.0
 30
0.0
  3
*Model_Space
  1

  0
ENDBLK
  5
72
330
70
100
AcDbEntity
  8
0
100
AcDbBlockEnd
  0
BLOCK
  5
6D
330
6C
100
AcDbEntity
 67
     1
  8
0
100
AcDbBlockBegin
  2
*Paper_Space
 70
     0
 10
0.0
 20
0.0
 30
0.0
  3
*Paper_Space
  1

  0
ENDBLK
  5
6E
330
6C
100
AcDbEntity
 67
     1
  8
0
100
AcDbBlockEnd
  0
BLOCK
  5
75
330
74
100
AcDbEntity
 67
     1
  8
0
100
AcDbBlockBegin
  2
*Paper_Space0
 70
     0
 10
0.0
 20
0.0
 30
0.0
  3
*Paper_Space0
  1

  0
ENDBLK
  5
76
330
74
100
AcDbEntity
 67
     1
  8
0
100
AcDbBlockEnd
  0
ENDSEC
  0
SECTION
  2
ENTITIES
  0
SPLINE
  5
7A
330
70
100
AcDbEntity
  8
Raven
100
AcDbSpline
210
0.0
220
0.0
230
1.0
 70
    11
 71
     3
 72
    17
 73
    13
 74
     0
 42
0.0000000001
 43
0.0000000001
 40
0.0
 40
0.0
 40
0.0
 40
0.0
 40
1.0
 40
1.0
 40
1.0
 40
2.0
 40
2.0
 40
2.0
 40
3.0
 40
3.0
 40
3.0
 40
4.0
 40
4.0
 40
4.0
 40
4.0
 10
458.0374164707771
 20
-104.917583863202
 30
0.0
 10
457.7612920676343
 20
-104.917583863202
 30
0.0
 10
457.5374039247867
 20
-104.6937172522011
 30
0.0
 10
457.5374039247867
 20
-104.4175928490583
 30
0.0
 10
457.5374039247867
 20
-104.1414469140688
 30
0.0
 10
457.7612920676343
 20
-103.9175803030679
 30
0.0
 10
458.0374164707771
 20
-103.9175803030679
 30
0.0
 10
458.3135408739199
 20
-103.9175803030679
 30
0.0
 10
458.537385953074
 20
-104.1414469140688
 30
0.0
 10
458.537385953074
 20
-104.4175928490583
 30
0.0
 10
458.537385953074
 20
-104.6937172522011
 30
0.0
 10
458.3135408739199
 20
-104.917583863202
 30
0.0
 10
458.0374164707771
 20
-104.917583863202
 30
0.0
  0
SPLINE
  5
7B
330
70
100
AcDbEntity
  8
Raven
100
AcDbSpline
210
0.0
220
0.0
230
1.0
 70
     9
 71
     3
 72
    17
 73
    13
 74
     0
 42
0.0000000001
 43
0.0000000001
 40
0.0
 40
0.0
 40
0.0
 40
0.0
 40
1.0
 40
1.0
 40
1.0
 40
2.0
 40
2.0
 40
2.0
 40
3.0
 40
3.0
 40
3.0
 40
4.0
 40
4.0
 40
4.0
 40
4.0
 10
449.2624137602972
 20
-116.395500832175
 30
0.0
 10
448.9862893571545
 20
-116.395500832175
 30
0.0
 10
448.7624442780004
 20
-116.1716557530209
 30
0.0
 10
448.7624442780004
 20
-115.8955098180313
 30
0.0
 10
448.7624442780004
 20
-115.6193638830418
 30
0.0
 10
448.9862893571545
 20
-115.3954972720409
 30
0.0
 10
449.2624137602972
 20
-115.3954972720409
 30
0.0
 10
449.5385812271336
 20
-115.3954972720409
 30
0.0
 10
449.7624693699812
 20
-115.6193638830418
 30
0.0
 10
449.7624693699812
 20
-115.8955098180313
 30
0.0
 10
449.7624693699812
 20
-116.1716557530209
 30
0.0
 10
449.5385812271336
 20
-116.395500832175
 30
0.0
 10
449.2624137602972
 20
-116.395500832175
 30
0.0
  0
SPLINE
  5
7C
330
70
100
AcDbEntity
  8
Raven
100
AcDbSpline
210
0.0
220
0.0
230
1.0
 70
     9
 71
     3
 72
    17
 73
    13
 74
     0
 42
0.0000000001
 43
0.0000000001
 40
0.0
 40
0.0
 40
0.0
 40
0.0
 40
1.0
 40
1.0
 40
1.0
 40
2.0
 40
2.0
 40
2.0
 40
3.0
 40
3.0
 40
3.0
 40
4.0
 40
4.0
 40
4.0
 40
4.0
 10
447.1457470941597
 20
-126.2732786074833
 30
0.0
 10
446.869622691017
 20
-126.2732786074833
 30
0.0
 10
446.6457776118629
 20
-126.0494335283292
 30
0.0
 10
446.6457776118629
 20
-125.7732875933396
 30
0.0
 10
446.6457776118629
 20
-125.4971416583501
 30
0.0
 10
446.869622691017
 20
-125.2732750473492
 30
0.0
 10
447.1457470941597
 20
-125.2732750473492
 30
0.0
 10
447.4219145609961
 20
-125.2732750473492
 30
0.0
 10
447.6458027038438
 20
-125.4971416583501
 30
0.0
 10
447.6458027038438
 20
-125.7732875933396
 30
0.0
 10
447.6458027038438
 20
-126.0494335283292
 30
0.0
 10
447.4219145609961
 20
-126.2732786074833
 30
0.0
 10
447.1457470941597
 20
-126.2732786074833
 30
0.0
  0
SPLINE
  5
7D
330
70
100
AcDbEntity
  8
Raven
100
AcDbSpline
210
0.0
220
0.0
230
1.0
 70
    11
 71
     3
 72
    17
 73
    13
 74
     0
 42
0.0000000001
 43
0.0000000001
 40
0.0
 40
0.0
 40
0.0
 40
0.0
 40
1.0
 40
1.0
 40
1.0
 40
2.0
 40
2.0
 40
2.0
 40
3.0
 40
3.0
 40
3.0
 40
4.0
 40
4.0
 40
4.0
 40
4.0
 10
401.0981271376811
 20
-121.4180409445804
 30
0.0
 10
401.0981271376811
 20
-121.4180409445804
 30
0.0
 10
405.4859299387761
 20
-101.383777169207
 30
0.0
 10
405.4859299387761
 20
-101.383777169207
 30
0.0
 10
405.4859299387761
 20
-101.383777169207
 30
0.0
 10
446.8238029210631
 20
-110.3011053869212
 30
0.0
 10
446.8238029210631
 20
-110.3011053869212
 30
0.0
 10
446.8238029210631
 20
-110.3011053869212
 30
0.0
 10
442.7746099424748
 20
-130.3247754936775
 30
0.0
 10
442.7746099424748
 20
-130.3247754936775
 30
0.0
 10
442.7746099424748
 20
-130.3247754936775
 30
0.0
 10
401.0981271376811
 20
-121.4180409445804
 30
0.0
 10
401.0981271376811
 20
-121.4180409445804
 30
0.0
  0
SPLINE
  5
7E
330
70
100
AcDbEntity
  8
Raven
100
AcDbSpline
210
0.0
220
0.0
230
1.0
 70
     9
 71
     3
 72
    17
 73
    13
 74
     0
 42
0.0000000001
 43
0.0000000001
 40
0.0
 40
0.0
 40
0.0
 40
0.0
 40
1.0
 40
1.0
 40
1.0
 40
2.0
 40
2.0
 40
2.0
 40
3.0
 40
3.0
 40
3.0
 40
4.0
 40
4.0
 40
4.0
 40
4.0
 10
422.6993495308269
 20
-149.3325084736803
 30
0.0
 10
421.0425169845831
 20
-149.3325084736803
 30
0.0
 10
419.6993603822713
 20
-147.9893734032153
 30
0.0
 10
419.6993603822713
 20
-146.3325193251247
 30
0.0
 10
419.6993603822713
 20
-144.6756652470342
 30
0.0
 10
421.0425169845831
 20
-143.3325086447224
 30
0.0
 10
422.6993495308269
 20
-143.3325086447224
 30
0.0
 10
424.3562251407642
 20
-143.3325086447224
 30
0.0
 10
425.6993386793824
 20
-144.6756652470342
 30
0.0
 10
425.6993386793824
 20
-146.3325193251247
 30
0.0
 10
425.6993386793824
 20
-147.9893734032153
 30
0.0
 10
424.3562251407642
 20
-149.3325084736803
 30
0.0
 10
422.6993495308269
 20
-149.3325084736803
 30
0.0
  0
SPLINE
  5
7F
330
70
100
AcDbEntity
  8
Raven
100
AcDbSpline
210
0.0
220
0.0
230
1.0
 70
     9
 71
     3
 72
    17
 73
    13
 74
     0
 42
0.0000000001
 43
0.0000000001
 40
0.0
 40
0.0
 40
0.0
 40
0.0
 40
1.0
 40
1.0
 40
1.0
 40
2.0
 40
2.0
 40
2.0
 40
3.0
 40
3.0
 40
3.0
 40
4.0
 40
4.0
 40
4.0
 40
4.0
 10
399.6971359949108
 20
-105.9885563903323
 30
0.0
 10
399.4210115917681
 20
-105.9885563903323
 30
0.0
 10
399.1971665126139
 20
-105.7647113111782
 30
0.0
 10
399.1971665126139
 20
-105.4885653761886
 30
0.0
 10
399.1971665126139
 20
-105.2124194411991
 30
0.0
 10
399.4210115917681
 20
-104.9885528301981
 30
0.0
 10
399.6971359949108
 20
-104.9885528301981
 30
0.0
 10
399.9733034617472
 20
-104.9885528301981
 30
0.0
 10
400.1971916045948
 20
-105.2124194411991
 30
0.0
 10
400.1971916045948
 20
-105.4885653761886
 30
0.0
 10
400.1971916045948
 20
-105.7647113111782
 30
0.0
 10
399.9733034617472
 20
-105.9885563903323
 30
0.0
 10
399.6971359949108
 20
-105.9885563903323
 30
0.0
  0
SPLINE
  5
80
330
70
100
AcDbEntity
  8
Raven
100
AcDbSpline
210
0.0
220
0.0
230
1.0
 70
     9
 71
     3
 72
    17
 73
    13
 74
     0
 42
0.0000000001
 43
0.0000000001
 40
0.0
 40
0.0
 40
0.0
 40
0.0
 40
1.0
 40
1.0
 40
1.0
 40
2.0
 40
2.0
 40
2.0
 40
3.0
 40
3.0
 40
3.0
 40
4.0
 40
4.0
 40
4.0
 40
4.0
 10
397.5804693287733
 20
-115.8663341656406
 30
0.0
 10
397.3043449256305
 20
-115.8663341656406
 30
0.0
 10
397.0804998464764
 20
-115.6424890864865
 30
0.0
 10
397.0804998464764
 20
-115.3663431514969
 30
0.0
 10
397.0804998464764
 20
-115.0901972165074
 30
0.0
 10
397.3043449256305
 20
-114.8663306055065
 30
0.0
 10
397.5804693287733
 20
-114.8663306055065
 30
0.0
 10
397.8566367956096
 20
-114.8663306055065
 30
0.0
 10
398.0805249384573
 20
-115.0901972165074
 30
0.0
 10
398.0805249384573
 20
-115.3663431514969
 30
0.0
 10
398.0805249384573
 20
-115.6424890864865
 30
0.0
 10
397.8566367956096
 20
-115.8663341656406
 30
0.0
 10
397.5804693287733
 20
-115.8663341656406
 30
0.0
  0
SPLINE
  5
81
330
70
100
AcDbEntity
  8
Raven
100
AcDbSpline
210
0.0
220
0.0
230
1.0
 70
    11
 71
     3
 72
    17
 73
    13
 74
     0
 42
0.0000000001
 43
0.0000000001
 40
0.0
 40
0.0
 40
0.0
 40
0.0
 40
1.0
 40
1.0
 40
1.0
 40
2.0
 40
2.0
 40
2.0
 40
3.0
 40
3.0
 40
3.0
 40
4.0
 40
4.0
 40
4.0
 40
4.0
 10
407.6282625662787
 20
-85.48035513542245
 30
0.0
 10
407.9043869694214
 20
-85.48035513542245
 30
0.0
 10
408.1282751122691
 20
-85.70420021457655
 30
0.0
 10
408.1282751122691
 20
-85.98034614956612
 30
0.0
 10
408.1282751122691
 20
-86.25649208455568
 30
0.0
 10
407.9043869694214
 20
-86.48033716370978
 30
0.0
 10
407.6282625662787
 20
-86.48033716370978
 30
0.0
 10
407.3521381631358
 20
-86.48033716370978
 30
0.0
 10
407.1282930839818
 20
-86.25649208455568
 30
0.0
 10
407.1282930839818
 20
-85.98034614956612
 30
0.0
 10
407.1282930839818
 20
-85.70420021457655
 30
0.0
 10
407.3521381631358
 20
-85.48035513542245
 30
0.0
 10
407.6282625662787
 20
-85.48035513542245
 30
0.0
  0
SPLINE
  5
82
330
70
100
AcDbEntity
  8
Raven
100
AcDbSpline
210
0.0
220
0.0
230
1.0
 70
     9
 71
     3
 72
    17
 73
    13
 74
     0
 42
0.0000000001
 43
0.0000000001
 40
0.0
 40
0.0
 40
0.0
 40
0.0
 40
1.0
 40
1.0
 40
1.0
 40
2.0
 40
2.0
 40
2.0
 40
3.0
 40
3.0
 40
3.0
 40
4.0
 40
4.0
 40
4.0
 40
4.0
 10
376.3638487828622
 20
-157.0435365072343
 30
0.0
 10
376.0876813160259
 20
-157.0435365072343
 30
0.0
 10
375.8637931731782
 20
-156.8196698962334
 30
0.0
 10
375.8637931731782
 20
-156.5435239612439
 30
0.0
 10
375.8637931731782
 20
-156.2673780262543
 30
0.0
 10
376.0876813160259
 20
-156.0435329471002
 30
0.0
 10
376.3638487828622
 20
-156.0435329471002
 30
0.0
 10
376.639973186005
 20
-156.0435329471002
 30
0.0
 10
376.8638182651591
 20
-156.2673780262543
 30
0.0
 10
376.8638182651591
 20
-156.5435239612439
 30
0.0
 10
376.8638182651591
 20
-156.8196698962334
 30
0.0
 10
376.639973186005
 20
-157.0435365072343
 30
0.0
 10
376.3638487828622
 20
-157.0435365072343
 30
0.0
  0
SPLINE
  5
83
330
70
100
AcDbEntity
  8
Raven
100
AcDbSpline
210
0.0
220
0.0
230
1.0
 70
     9
 71
     3
 72
    17
 73
    13
 74
     0
 42
0.0000000001
 43
0.0000000001
 40
0.0
 40
0.0
 40
0.0
 40
0.0
 40
1.0
 40
1.0
 40
1.0
 40
2.0
 40
2.0
 40
2.0
 40
3.0
 40
3.0
 40
3.0
 40
4.0
 40
4.0
 40
4.0
 40
4.0
 10
352.9680761514498
 20
-94.2328355341675
 30
0.0
 10
352.6919517483071
 20
-94.2328355341675
 30
0.0
 10
352.4680851373062
 20
-94.00899045501338
 30
0.0
 10
352.4680851373062
 20
-93.73284452002382
 30
0.0
 10
352.4680851373062
 20
-93.45669858503425
 30
0.0
 10
352.6919517483071
 20
-93.23285350588015
 30
0.0
 10
352.9680761514498
 20
-93.23285350588015
 30
0.0
 10
353.2442220864394
 20
-93.23285350588015
 30
0.0
 10
353.4680886974403
 20
-93.45669858503425
 30
0.0
 10
353.4680886974403
 20
-93.73284452002382
 30
0.0
 10
353.4680886974403
 20
-94.00899045501338
 30
0.0
 10
353.2442220864394
 20
-94.2328355341675
 30
0.0
 10
352.9680761514498
 20
-94.2328355341675
 30
0.0
  0
SPLINE
  5
84
330
70
100
AcDbEntity
  8
Raven
100
AcDbSpline
210
0.0
220
0.0
230
1.0
 70
    11
 71
     3
 72
    17
 73
    13
 74
     0
 42
0.0000000001
 43
0.0000000001
 40
0.0
 40
0.0
 40
0.0
 40
0.0
 40
1.0
 40
1.0
 40
1.0
 40
2.0
 40
2.0
 40
2.0
 40
3.0
 40
3.0
 40
3.0
 40
4.0
 40
4.0
 40
4.0
 40
4.0
 10
346.5727516155595
 20
-143.9773874558676
 30
0.0
 10
346.2966056805699
 20
-143.9773874558676
 30
0.0
 10
346.0727390695691
 20
-143.7535423767135
 30
0.0
 10
346.0727390695691
 20
-143.477396441724
 30
0.0
 10
346.0727390695691
 20
-143.2012505067344
 30
0.0
 10
346.2966056805699
 20
-142.9774054275803
 30
0.0
 10
346.5727516155595
 20
-142.9774054275803
 30
0.0
 10
346.848897550549
 20
-142.9774054275803
 30
0.0
 10
347.0727426297032
 20
-143.2012505067344
 30
0.0
 10
347.0727426297032
 20
-143.477396441724
 30
0.0
 10
347.0727426297032
 20
-143.7535423767135
 30
0.0
 10
346.848897550549
 20
-143.9773874558676
 30
0.0
 10
346.5727516155595
 20
-143.9773874558676
 30
0.0
  0
SPLINE
  5
85
330
70
100
AcDbEntity
  8
Raven
100
AcDbSpline
210
0.0
220
0.0
230
1.0
 70
    11
 71
     3
 72
    17
 73
    13
 74
     0
 42
0.0000000001
 43
0.0000000001
 40
0.0
 40
0.0
 40
0.0
 40
0.0
 40
1.0
 40
1.0
 40
1.0
 40
2.0
 40
2.0
 40
2.0
 40
3.0
 40
3.0
 40
3.0
 40
4.0
 40
4.0
 40
4.0
 40
4.0
 10
313.7170051638126
 20
-91.66623939765635
 30
0.0
 10
313.440859228823
 20
-91.66623939765635
 30
0.0
 10
313.2169926178221
 20
-91.44237278665547
 30
0.0
 10
313.2169926178221
 20
-91.16624838351269
 30
0.0
 10
313.2169926178221
 20
-90.89010244852314
 30
0.0
 10
313.440859228823
 20
-90.66623583752225
 30
0.0
 10
313.7170051638126
 20
-90.66623583752225
 30
0.0
 10
313.9931510988021
 20
-90.66623583752225
 30
0.0
 10
314.2169961779562
 20
-90.89010244852314
 30
0.0
 10
314.2169961779562
 20
-91.16624838351269
 30
0.0
 10
314.2169961779562
 20
-91.44237278665547
 30
0.0
 10
313.9931510988021
 20
-91.66623939765635
 30
0.0
 10
313.7170051638126
 20
-91.66623939765635
 30
0.0
  0
SPLINE
  5
86
330
70
100
AcDbEntity
  8
Raven
100
AcDbSpline
210
0.0
220
0.0
230
1.0
 70
    11
 71
     3
 72
    17
 73
    13
 74
     0
 42
0.0000000001
 43
0.0000000001
 40
0.0
 40
0.0
 40
0.0
 40
0.0
 40
1.0
 40
1.0
 40
1.0
 40
2.0
 40
2.0
 40
2.0
 40
3.0
 40
3.0
 40
3.0
 40
4.0
 40
4.0
 40
4.0
 40
4.0
 10
312.2775150789944
 20
-102.8832119154684
 30
0.0
 10
312.0013691440048
 20
-102.8832119154684
 30
0.0
 10
311.7775240648508
 20
-102.6593453044675
 30
0.0
 10
311.7775240648508
 20
-102.383199369478
 30
0.0
 10
311.7775240648508
 20
-102.1070749663352
 30
0.0
 10
312.0013691440048
 20
-101.8832083553343
 30
0.0
 10
312.2775150789944
 20
-101.8832083553343
 30
0.0
 10
312.553661013984
 20
-101.8832083553343
 30
0.0
 10
312.7775060931381
 20
-102.1070749663352
 30
0.0
 10
312.7775060931381
 20
-102.383199369478
 30
0.0
 10
312.7775060931381
 20
-102.6593453044675
 30
0.0
 10
312.553661013984
 20
-102.8832119154684
 30
0.0
 10
312.2775150789944
 20
-102.8832119154684
 30
0.0
  0
SPLINE
  5
87
330
70
100
AcDbEntity
  8
Raven
100
AcDbSpline
210
0.0
220
0.0
230
1.0
 70
    11
 71
     3
 72
    17
 73
    13
 74
     0
 42
0.0000000001
 43
0.0000000001
 40
0.0
 40
0.0
 40
0.0
 40
0.0
 40
1.0
 40
1.0
 40
1.0
 40
2.0
 40
2.0
 40
2.0
 40
3.0
 40
3.0
 40
3.0
 40
4.0
 40
4.0
 40
4.0
 40
4.0
 10
308.2284297596399
 20
-107.5320237632645
 30
0.0
 10
308.2284297596399
 20
-107.5320237632645
 30
0.0
 10
285.3362008970904
 20
-100.018141318854
 30
0.0
 10
285.3362008970904
 20
-100.018141318854
 30
0.0
 10
285.3362008970904
 20
-100.018141318854
 30
0.0
 10
288.9563718285313
 20
-88.68653324877021
 30
0.0
 10
288.9563718285313
 20
-88.68653324877021
 30
0.0
 10
288.9563718285313
 20
-88.68653324877021
 30
0.0
 10
311.9500156894279
 20
-95.99614306275226
 30
0.0
 10
311.9500156894279
 20
-95.99614306275226
 30
0.0
 10
311.9500156894279
 20
-95.99614306275226
 30
0.0
 10
308.2284297596399
 20
-107.5320237632645
 30
0.0
 10
308.2284297596399
 20
-107.5320237632645
 30
0.0
  0
SPLINE
  5
88
330
70
100
AcDbEntity
  8
Raven
100
AcDbSpline
210
0.0
220
0.0
230
1.0
 70
    11
 71
     3
 72
    17
 73
    13
 74
     0
 42
0.0000000001
 43
0.0000000001
 40
0.0
 40
0.0
 40
0.0
 40
0.0
 40
1.0
 40
1.0
 40
1.0
 40
2.0
 40
2.0
 40
2.0
 40
3.0
 40
3.0
 40
3.0
 40
4.0
 40
4.0
 40
4.0
 40
4.0
 10
302.0482083731099
 20
-134.0212337582698
 30
0.0
 10
301.7720624381204
 20
-134.0212337582698
 30
0.0
 10
301.5482173589663
 20
-133.7973671472689
 30
0.0
 10
301.5482173589663
 20
-133.5212212122794
 30
0.0
 10
301.5482173589663
 20
-133.2450968091366
 30
0.0
 10
301.7720624381204
 20
-133.0212301981357
 30
0.0
 10
302.0482083731099
 20
-133.0212301981357
 30
0.0
 10
302.3243543080995
 20
-133.0212301981357
 30
0.0
 10
302.5481993872536
 20
-133.2450968091366
 30
0.0
 10
302.5481993872536
 20
-133.5212212122794
 30
0.0
 10
302.5481993872536
 20
-133.7973671472689
 30
0.0
 10
302.3243543080995
 20
-134.0212337582698
 30
0.0
 10
302.0482083731099
 20
-134.0212337582698
 30
0.0
  0
SPLINE
  5
89
330
70
100
AcDbEntity
  8
Raven
100
AcDbSpline
210
0.0
220
0.0
230
1.0
 70
    11
 71
     3
 72
    17
 73
    13
 74
     0
 42
0.0000000001
 43
0.0000000001
 40
0.0
 40
0.0
 40
0.0
 40
0.0
 40
1.0
 40
1.0
 40
1.0
 40
2.0
 40
2.0
 40
2.0
 40
3.0
 40
3.0
 40
3.0
 40
4.0
 40
4.0
 40
4.0
 40
4.0
 10
275.2304008643521
 20
-131.0330009980577
 30
0.0
 10
275.2304008643521
 20
-131.0330009980577
 30
0.0
 10
278.9464100458233
 20
-119.6167297064239
 30
0.0
 10
278.9464100458233
 20
-119.6167297064239
 30
0.0
 10
278.9464100458233
 20
-119.6167297064239
 30
0.0
 10
301.8309951027649
 20
-127.0058135668813
 30
0.0
 10
301.8309951027649
 20
-127.0058135668813
 30
0.0
 10
301.8309951027649
 20
-127.0058135668813
 30
0.0
 10
298.1064593099678
 20
-138.5415650763129
 30
0.0
 10
298.1064593099678
 20
-138.5415650763129
 30
0.0
 10
298.1064593099678
 20
-138.5415650763129
 30
0.0
 10
275.2304008643521
 20
-131.0330009980577
 30
0.0
 10
275.2304008643521
 20
-131.0330009980577
 30
0.0
  0
SPLINE
  5
8A
330
70
100
AcDbEntity
  8
Raven
100
AcDbSpline
210
0.0
220
0.0
230
1.0
 70
    11
 71
     3
 72
    17
 73
    13
 74
     0
 42
0.0000000001
 43
0.0000000001
 40
0.0
 40
0.0
 40
0.0
 40
0.0
 40
1.0
 40
1.0
 40
1.0
 40
2.0
 40
2.0
 40
2.0
 40
3.0
 40
3.0
 40
3.0
 40
4.0
 40
4.0
 40
4.0
 40
4.0
 10
285.6999383847925
 20
-147.165758731926
 30
0.0
 10
285.4237924498029
 20
-147.165758731926
 30
0.0
 10
285.199925838802
 20
-146.9418921209251
 30
0.0
 10
285.199925838802
 20
-146.6657461859355
 30
0.0
 10
285.199925838802
 20
-146.389600250946
 30
0.0
 10
285.4237924498029
 20
-146.1657551717919
 30
0.0
 10
285.6999383847925
 20
-146.1657551717919
 30
0.0
 10
285.976084319782
 20
-146.1657551717919
 30
0.0
 10
286.1999293989362
 20
-146.389600250946
 30
0.0
 10
286.1999293989362
 20
-146.6657461859355
 30
0.0
 10
286.1999293989362
 20
-146.9418921209251
 30
0.0
 10
285.976084319782
 20
-147.165758731926
 30
0.0
 10
285.6999383847925
 20
-147.165758731926
 30
0.0
  0
SPLINE
  5
8B
330
70
100
AcDbEntity
  8
Raven
100
AcDbSpline
210
0.0
220
0.0
230
1.0
 70
     9
 71
     3
 72
    17
 73
    13
 74
     0
 42
0.0000000001
 43
0.0000000001
 40
0.0
 40
0.0
 40
0.0
 40
0.0
 40
1.0
 40
1.0
 40
1.0
 40
2.0
 40
2.0
 40
2.0
 40
3.0
 40
3.0
 40
3.0
 40
4.0
 40
4.0
 40
4.0
 40
4.0
 10
274.8060296961097
 20
-125.1749821667857
 30
0.0
 10
274.5298837611201
 20
-125.1749821667857
 30
0.0
 10
274.3060171501193
 20
-124.9511370876316
 30
0.0
 10
274.3060171501193
 20
-124.674991152642
 30
0.0
 10
274.3060171501193
 20
-124.3988452176524
 30
0.0
 10
274.5298837611201
 20
-124.1749786066516
 30
0.0
 10
274.8060296961097
 20
-124.1749786066516
 30
0.0
 10
275.0821540992525
 20
-124.1749786066516
 30
0.0
 10
275.3060207102534
 20
-124.3988452176524
 30
0.0
 10
275.3060207102534
 20
-124.674991152642
 30
0.0
 10
275.3060207102534
 20
-124.9511370876316
 30
0.0
 10
275.0821540992525
 20
-125.1749821667857
 30
0.0
 10
274.8060296961097
 20
-125.1749821667857
 30
0.0
  0
SPLINE
  5
8C
330
70
100
AcDbEntity
  8
Raven
100
AcDbSpline
210
0.0
220
0.0
230
1.0
 70
    11
 71
     3
 72
    17
 73
    13
 74
     0
 42
0.0000000001
 43
0.0000000001
 40
0.0
 40
0.0
 40
0.0
 40
0.0
 40
1.0
 40
1.0
 40
1.0
 40
2.0
 40
2.0
 40
2.0
 40
3.0
 40
3.0
 40
3.0
 40
4.0
 40
4.0
 40
4.0
 40
4.0
 10
271.1093991767431
 20
-119.01782138816
 30
0.0
 10
271.1093991767431
 20
-119.01782138816
 30
0.0
 10
266.7920701101683
 20
-117.7486912750875
 30
0.0
 10
266.7920701101683
 20
-117.7486912750875
 30
0.0
 10
266.7920701101683
 20
-117.7486912750875
 30
0.0
 10
274.1248697231355
 20
-92.8041329045876
 30
0.0
 10
274.1248697231355
 20
-92.8041329045876
 30
0.0
 10
274.1248697231355
 20
-92.8041329045876
 30
0.0
 10
278.4421987897102
 20
-94.07328454950684
 30
0.0
 10
278.4421987897102
 20
-94.07328454950684
 30
0.0
 10
278.4421987897102
 20
-94.07328454950684
 30
0.0
 10
271.1093991767431
 20
-119.01782138816
 30
0.0
 10
271.1093991767431
 20
-119.01782138816
 30
0.0
  0
SPLINE
  5
8D
330
70
100
AcDbEntity
  8
Raven
100
AcDbSpline
210
0.0
220
0.0
230
1.0
 70
    11
 71
     3
 72
    17
 73
    13
 74
     0
 42
0.0000000001
 43
0.0000000001
 40
0.0
 40
0.0
 40
0.0
 40
0.0
 40
1.0
 40
1.0
 40
1.0
 40
2.0
 40
2.0
 40
2.0
 40
3.0
 40
3.0
 40
3.0
 40
4.0
 40
4.0
 40
4.0
 40
4.0
 10
266.452254504242
 20
-93.24532044516741
 30
0.0
 10
266.452254504242
 20
-92.96917451017785
 30
0.0
 10
266.6761211152429
 20
-92.74532943102375
 30
0.0
 10
266.9522670502324
 20
-92.74532943102375
 30
0.0
 10
267.228412985222
 20
-92.74532943102375
 30
0.0
 10
267.4522580643761
 20
-92.96917451017785
 30
0.0
 10
267.4522580643761
 20
-93.24532044516741
 30
0.0
 10
267.4522580643761
 20
-93.52146638015696
 30
0.0
 10
267.228412985222
 20
-93.74533299115785
 30
0.0
 10
266.9522670502324
 20
-93.74533299115785
 30
0.0
 10
266.6761211152429
 20
-93.74533299115785
 30
0.0
 10
266.452254504242
 20
-93.52146638015696
 30
0.0
 10
266.452254504242
 20
-93.24532044516741
 30
0.0
  0
SPLINE
  5
8E
330
70
100
AcDbEntity
  8
Raven
100
AcDbSpline
210
0.0
220
0.0
230
1.0
 70
    11
 71
     3
 72
    17
 73
    13
 74
     0
 42
0.0000000001
 43
0.0000000001
 40
0.0
 40
0.0
 40
0.0
 40
0.0
 40
1.0
 40
1.0
 40
1.0
 40
2.0
 40
2.0
 40
2.0
 40
3.0
 40
3.0
 40
3.0
 40
4.0
 40
4.0
 40
4.0
 40
4.0
 10
285.0060315585228
 20
-93.00310870070756
 30
0.0
 10
285.2821774935124
 20
-93.00310870070756
 30
0.0
 10
285.5060225726665
 20
-93.22695377986168
 30
0.0
 10
285.5060225726665
 20
-93.50309971485122
 30
0.0
 10
285.5060225726665
 20
-93.77924564984079
 30
0.0
 10
285.2821774935124
 20
-94.00311226084168
 30
0.0
 10
285.0060315585228
 20
-94.00311226084168
 30
0.0
 10
284.7298856235333
 20
-94.00311226084168
 30
0.0
 10
284.5060190125323
 20
-93.77924564984079
 30
0.0
 10
284.5060190125323
 20
-93.50309971485122
 30
0.0
 10
284.5060190125323
 20
-93.22695377986168
 30
0.0
 10
284.7298856235333
 20
-93.00310870070756
 30
0.0
 10
285.0060315585228
 20
-93.00310870070756
 30
0.0
  0
SPLINE
  5
8F
330
70
100
AcDbEntity
  8
Raven
100
AcDbSpline
210
0.0
220
0.0
230
1.0
 70
    11
 71
     3
 72
    17
 73
    13
 74
     0
 42
0.0000000001
 43
0.0000000001
 40
0.0
 40
0.0
 40
0.0
 40
0.0
 40
1.0
 40
1.0
 40
1.0
 40
2.0
 40
2.0
 40
2.0
 40
3.0
 40
3.0
 40
3.0
 40
4.0
 40
4.0
 40
4.0
 40
4.0
 10
289.4096387351563
 20
-72.16758031100543
 30
0.0
 10
289.6857846701458
 20
-72.16758031100543
 30
0.0
 10
289.9096297492999
 20
-72.39144692200631
 30
0.0
 10
289.9096297492999
 20
-72.66759285699587
 30
0.0
 10
289.9096297492999
 20
-72.94371726013864
 30
0.0
 10
289.6857846701458
 20
-73.16758387113953
 30
0.0
 10
289.4096387351563
 20
-73.16758387113953
 30
0.0
 10
289.1334928001667
 20
-73.16758387113953
 30
0.0
 10
288.9096261891658
 20
-72.94371726013864
 30
0.0
 10
288.9096261891658
 20
-72.66759285699587
 30
0.0
 10
288.9096261891658
 20
-72.39144692200631
 30
0.0
 10
289.1334928001667
 20
-72.16758031100543
 30
0.0
 10
289.4096387351563
 20
-72.16758031100543
 30
0.0
  0
SPLINE
  5
90
330
70
100
AcDbEntity
  8
Raven
100
AcDbSpline
210
0.0
220
0.0
230
1.0
 70
     9
 71
     3
 72
    98
 73
    94
 74
     0
 42
0.0000000001
 43
0.0000000001
 40
0.0
 40
0.0
 40
0.0
 40
0.0
 40
1.0
 40
1.0
 40
1.0
 40
2.0
 40
2.0
 40
2.0
 40
3.0
 40
3.0
 40
3.0
 40
4.0
 40
4.0
 40
4.0
 40
5.0
 40
5.0
 40
5.0
 40
6.0
 40
6.0
 40
6.0
 40
7.0
 40
7.0
 40
7.0
 40
8.0
 40
8.0
 40
8.0
 40
9.0
 40
9.0
 40
9.0
 40
10.0
 40
10.0
 40
10.0
 40
11.0
 40
11.0
 40
11.0
 40
12.0
 40
12.0
 40
12.0
 40
13.0
 40
13.0
 40
13.0
 40
14.0
 40
14.0
 40
14.0
 40
15.0
 40
15.0
 40
15.0
 40
16.0
 40
16.0
 40
16.0
 40
17.0
 40
17.0
 40
17.0
 40
18.0
 40
18.0
 40
18.0
 40
19.0
 40
19.0
 40
19.0
 40
20.0
 40
20.0
 40
20.0
 40
21.0
 40
21.0
 40
21.0
 40
22.0
 40
22.0
 40
22.0
 40
23.0
 40
23.0
 40
23.0
 40
24.0
 40
24.0
 40
24.0
 40
25.0
 40
25.0
 40
25.0
 40
26.0
 40
26.0
 40
26.0
 40
27.0
 40
27.0
 40
27.0
 40
28.0
 40
28.0
 40
28.0
 40
29.0
 40
29.0
 40
29.0
 40
30.0
 40
30.0
 40
30.0
 40
31.0
 40
31.0
 40
31.0
 40
31.0
 10
467.8451726803477
 20
-108.4330023600445
 30
0.0
 10
467.5784361624023
 20
-104.678365045445
 30
0.0
 10
467.8802265269101
 20
-103.2904222018249
 30
0.0
 10
465.4659897382342
 20
-99.77278592476384
 30
0.0
 10
448.7061169668165
 20
-91.33219432666782
 30
0.0
 10
426.9000405833791
 20
-84.47466716773767
 30
0.0
 10
408.6987398609329
 20
-77.97947792646867
 30
0.0
 10
408.6987398609329
 20
-77.97947792646867
 30
0.0
 10
398.8682460211597
 20
-76.35655803890782
 30
0.0
 10
386.9850781638874
 20
-74.37300124958166
 30
0.0
 10
386.9850781638874
 20
-74.37300124958166
 30
0.0
 10
386.6524541947866
 20
-76.23563518737555
 30
0.0
 10
386.6524541947866
 20
-76.23563518737555
 30
0.0
 10
386.6524541947866
 20
-76.23563518737555
 30
0.0
 10
381.730360147623
 20
-75.35666213800762
 30
0.0
 10
381.730360147623
 20
-75.35666213800762
 30
0.0
 10
381.730360147623
 20
-75.35666213800762
 30
0.0
 10
382.0532086582844
 20
-73.5486760273485
 30
0.0
 10
382.0532086582844
 20
-73.5486760273485
 30
0.0
 10
372.8274582672532
 20
-72.00454116716596
 30
0.0
 10
363.0408032675297
 20
-70.35390979279563
 30
0.0
 10
355.9762689336296
 20
-69.12954438918463
 30
0.0
 10
355.9762689336296
 20
-69.12954438918463
 30
0.0
 10
354.8060561246774
 20
-81.37341374376255
 30
0.0
 10
354.8060561246774
 20
-81.37341374376255
 30
0.0
 10
354.8060561246774
 20
-81.37341374376255
 30
0.0
 10
350.7914432920222
 20
-80.95024835893996
 30
0.0
 10
350.7914432920222
 20
-80.95024835893996
 30
0.0
 10
350.7914432920222
 20
-80.95024835893996
 30
0.0
 10
342.7551336491202
 20
-148.8128158197303
 30
0.0
 10
342.7551336491202
 20
-148.8128158197303
 30
0.0
 10
342.7551336491202
 20
-148.8128158197303
 30
0.0
 10
331.5302589435389
 20
-147.4730827810571
 30
0.0
 10
331.5302589435389
 20
-147.4730827810571
 30
0.0
 10
331.5302589435389
 20
-147.4730827810571
 30
0.0
 10
339.7108750235793
 20
-66.4221515065607
 30
0.0
 10
339.7108750235793
 20
-66.4221515065607
 30
0.0
 10
339.3789616054222
 20
-66.36954920487029
 30
0.0
 10
323.3617006976969
 20
-64.25077241774807
 30
0.0
 10
317.9255338085937
 20
-64.22568781624609
 30
0.0
 10
319.306909438945
 20
-64.24713353564178
 30
0.0
 10
295.6867534322089
 20
-64.8942516588524
 30
0.0
 10
285.4884310538449
 20
-67.34552322399479
 30
0.0
 10
280.8993270171775
 20
-68.44851360729109
 30
0.0
 10
274.6569216571387
 20
-70.0612058676301
 30
0.0
 10
270.4766212634898
 20
-71.84938267924903
 30
0.0
 10
270.4766212634898
 20
-71.84938267924903
 30
0.0
 10
255.6221662094234
 20
-115.7608711800984
 30
0.0
 10
254.4995387818612
 20
-119.3080276190987
 30
0.0
 10
254.581553586257
 20
-122.5821602408931
 30
0.0
 10
264.7106510772143
 20
-134.0329901466133
 30
0.0
 10
270.1351907690547
 20
-140.2664597902372
 30
0.0
 10
273.370867512495
 20
-144.1207249599008
 30
0.0
 10
283.8392638450558
 20
-153.3043590586248
 30
0.0
 10
296.5454219500607
 20
-154.8483647277267
 30
0.0
 10
300.1649469260981
 20
-155.2881957619592
 30
0.0
 10
306.917312545341
 20
-156.3597927126461
 30
0.0
 10
310.6043183291957
 20
-156.9278243626235
 30
0.0
 10
323.819317037372
 20
-158.9637681351723
 30
0.0
 10
333.036863794779
 20
-160.308711880767
 30
0.0
 10
346.2214164716044
 20
-161.393593980919
 30
0.0
 10
348.0832321992205
 20
-161.5467715389319
 30
0.0
 10
351.886251573541
 20
-161.6868792659476
 30
0.0
 10
353.7396268172183
 20
-161.6314993560222
 30
0.0
 10
356.2383330408232
 20
-161.5568269113794
 30
0.0
 10
360.147310633162
 20
-161.4425789323498
 30
0.0
 10
364.5843782996959
 20
-161.2513330692249
 30
0.0
 10
364.5843782996959
 20
-161.2513330692249
 30
0.0
 10
365.1452398446946
 20
-158.1106763656372
 30
0.0
 10
365.1452398446946
 20
-158.1106763656372
 30
0.0
 10
365.1452398446946
 20
-158.1106763656372
 30
0.0
 10
370.0673338918582
 20
-158.9896494150052
 30
0.0
 10
370.0673338918582
 20
-158.9896494150052
 30
0.0
 10
370.0673338918582
 20
-158.9896494150052
 30
0.0
 10
369.7076228595045
 20
-161.0040182770775
 30
0.0
 10
369.7076228595045
 20
-161.0040182770775
 30
0.0
 10
378.1729976132476
 20
-160.5477584437498
 30
0.0
 10
387.2882035028959
 20
-159.7972228604413
 30
0.0
 10
391.9337855736746
 20
-158.5337125593791
 30
0.0
 10
421.9893584150105
 20
-150.3590608008976
 30
0.0
 10
405.4552685889573
 20
-158.683918722536
 30
0.0
 10
423.1455755235539
 20
-158.337040670865
 30
0.0
 10
431.3548074279686
 20
-155.7933328874839
 30
0.0
 10
439.1015352634885
 20
-137.9873999356637
 30
0.0
 10
455.4258618381835
 20
-134.7943347170067
 30
0.0
 10
461.1616013115759
 20
-133.6724178403883
 30
0.0
 10
462.8255824309515
 20
-127.6872534538638
 30
0.0
 10
464.6095390006011
 20
-123.8501061023925
 30
0.0
 10
465.3695270646472
 20
-122.2154944220286
 30
0.0
 10
466.1343382623726
 20
-120.4112763845564
 30
0.0
 10
466.5128681288145
 20
-118.6159079361121
 30
0.0
 10
467.4714659475852
 20
-114.3745432249871
 30
0.0
 10
468.1044161156128
 20
-112.0803249502785
 30
0.0
 10
467.8451726803477
 20
-108.4330023600445
 30
0.0
  0
HATCH
  5
91
330
70
100
AcDbEntity
  8
Raven
 62
     6
440
 33554687
100
AcDbHatch
 10
0.0
 20
0.0
 30
0.0
210
0.0
220
0.0
230
1.0
  2
SOLID
 70
     1
 71
     1
 91
       23
 92
        1
 93
        1
 72
     4
 94
        3
 73
     0
 74
     0
 95
       17
 96
       13
 40
0.0
 40
0.0
 40
0.0
 40
0.0
 40
1.0
 40
1.0
 40
1.0
 40
2.0
 40
2.0
 40
2.0
 40
3.0
 40
3.0
 40
3.0
 40
4.0
 40
4.0
 40
4.0
 40
4.0
 10
458.0374164707771
 20
-104.917583863202
 10
457.7612920676343
 20
-104.917583863202
 10
457.5374039247867
 20
-104.6937172522011
 10
457.5374039247867
 20
-104.4175928490583
 10
457.5374039247867
 20
-104.1414469140688
 10
457.7612920676343
 20
-103.9175803030679
 10
458.0374164707771
 20
-103.9175803030679
 10
458.3135408739199
 20
-103.9175803030679
 10
458.537385953074
 20
-104.1414469140688
 10
458.537385953074
 20
-104.4175928490583
 10
458.537385953074
 20
-104.6937172522011
 10
458.3135408739199
 20
-104.917583863202
 10
458.0374164707771
 20
-104.917583863202
 97
        0
 97
        1
330
7A
 92
        1
 93
        1
 72
     4
 94
        3
 73
     0
 74
     0
 95
       17
 96
       13
 40
0.0
 40
0.0
 40
0.0
 40
0.0
 40
1.0
 40
1.0
 40
1.0
 40
2.0
 40
2.0
 40
2.0
 40
3.0
 40
3.0
 40
3.0
 40
4.0
 40
4.0
 40
4.0
 40
4.0
 10
449.2624137602972
 20
-116.395500832175
 10
448.9862893571545
 20
-116.395500832175
 10
448.7624442780004
 20
-116.1716557530209
 10
448.7624442780004
 20
-115.8955098180313
 10
448.7624442780004
 20
-115.6193638830418
 10
448.9862893571545
 20
-115.3954972720409
 10
449.2624137602972
 20
-115.3954972720409
 10
449.5385812271336
 20
-115.3954972720409
 10
449.7624693699812
 20
-115.6193638830418
 10
449.7624693699812
 20
-115.8955098180313
 10
449.7624693699812
 20
-116.1716557530209
 10
449.5385812271336
 20
-116.395500832175
 10
449.2624137602972
 20
-116.395500832175
 97
        0
 97
        1
330
7B
 92
        1
 93
        1
 72
     4
 94
        3
 73
     0
 74
     0
 95
       17
 96
       13
 40
0.0
 40
0.0
 40
0.0
 40
0.0
 40
1.0
 40
1.0
 40
1.0
 40
2.0
 40
2.0
 40
2.0
 40
3.0
 40
3.0
 40
3.0
 40
4.0
 40
4.0
 40
4.0
 40
4.0
 10
447.1457470941597
 20
-126.2732786074833
 10
446.869622691017
 20
-126.2732786074833
 10
446.6457776118629
 20
-126.0494335283292
 10
446.6457776118629
 20
-125.7732875933396
 10
446.6457776118629
 20
-125.4971416583501
 10
446.869622691017
 20
-125.2732750473492
 10
447.1457470941597
 20
-125.2732750473492
 10
447.4219145609961
 20
-125.2732750473492
 10
447.6458027038438
 20
-125.4971416583501
 10
447.6458027038438
 20
-125.7732875933396
 10
447.6458027038438
 20
-126.0494335283292
 10
447.4219145609961
 20
-126.2732786074833
 10
447.1457470941597
 20
-126.2732786074833
 97
        0
 97
        1
330
7C
 92
        1
 93
        1
 72
     4
 94
        3
 73
     0
 74
     0
 95
       17
 96
       13
 40
0.0
 40
0.0
 40
0.0
 40
0.0
 40
1.0
 40
1.0
 40
1.0
 40
2.0
 40
2.0
 40
2.0
 40
3.0
 40
3.0
 40
3.0
 40
4.0
 40
4.0
 40
4.0
 40
4.0
 10
401.0981271376811
 20
-121.4180409445804
 10
401.0981271376811
 20
-121.4180409445804
 10
405.4859299387761
 20
-101.383777169207
 10
405.4859299387761
 20
-101.383777169207
 10
405.4859299387761
 20
-101.383777169207
 10
446.8238029210631
 20
-110.3011053869212
 10
446.8238029210631
 20
-110.3011053869212
 10
446.8238029210631
 20
-110.3011053869212
 10
442.7746099424748
 20
-130.3247754936775
 10
442.7746099424748
 20
-130.3247754936775
 10
442.7746099424748
 20
-130.3247754936775
 10
401.0981271376811
 20
-121.4180409445804
 10
401.0981271376811
 20
-121.4180409445804
 97
        0
 97
        1
330
7D
 92
        1
 93
        1
 72
     4
 94
        3
 73
     0
 74
     0
 95
       17
 96
       13
 40
0.0
 40
0.0
 40
0.0
 40
0.0
 40
1.0
 40
1.0
 40
1.0
 40
2.0
 40
2.0
 40
2.0
 40
3.0
 40
3.0
 40
3.0
 40
4.0
 40
4.0
 40
4.0
 40
4.0
 10
422.6993495308269
 20
-149.3325084736803
 10
421.0425169845831
 20
-149.3325084736803
 10
419.6993603822713
 20
-147.9893734032153
 10
419.6993603822713
 20
-146.3325193251247
 10
419.6993603822713
 20
-144.6756652470342
 10
421.0425169845831
 20
-143.3325086447224
 10
422.6993495308269
 20
-143.3325086447224
 10
424.3562251407642
 20
-143.3325086447224
 10
425.6993386793824
 20
-144.6756652470342
 10
425.6993386793824
 20
-146.3325193251247
 10
425.6993386793824
 20
-147.9893734032153
 10
424.3562251407642
 20
-149.3325084736803
 10
422.6993495308269
 20
-149.3325084736803
 97
        0
 97
        1
330
7E
 92
        1
 93
        1
 72
     4
 94
        3
 73
     0
 74
     0
 95
       17
 96
       13
 40
0.0
 40
0.0
 40
0.0
 40
0.0
 40
1.0
 40
1.0
 40
1.0
 40
2.0
 40
2.0
 40
2.0
 40
3.0
 40
3.0
 40
3.0
 40
4.0
 40
4.0
 40
4.0
 40
4.0
 10
399.6971359949108
 20
-105.9885563903323
 10
399.4210115917681
 20
-105.9885563903323
 10
399.1971665126139
 20
-105.7647113111782
 10
399.1971665126139
 20
-105.4885653761886
 10
399.1971665126139
 20
-105.2124194411991
 10
399.4210115917681
 20
-104.9885528301981
 10
399.6971359949108
 20
-104.9885528301981
 10
399.9733034617472
 20
-104.9885528301981
 10
400.1971916045948
 20
-105.2124194411991
 10
400.1971916045948
 20
-105.4885653761886
 10
400.1971916045948
 20
-105.7647113111782
 10
399.9733034617472
 20
-105.9885563903323
 10
399.6971359949108
 20
-105.9885563903323
 97
        0
 97
        1
330
7F
 92
        1
 93
        1
 72
     4
 94
        3
 73
     0
 74
     0
 95
       17
 96
       13
 40
0.0
 40
0.0
 40
0.0
 40
0.0
 40
1.0
 40
1.0
 40
1.0
 40
2.0
 40
2.0
 40
2.0
 40
3.0
 40
3.0
 40
3.0
 40
4.0
 40
4.0
 40
4.0
 40
4.0
 10
397.5804693287733
 20
-115.8663341656406
 10
397.3043449256305
 20
-115.8663341656406
 10
397.0804998464764
 20
-115.6424890864865
 10
397.0804998464764
 20
-115.3663431514969
 10
397.0804998464764
 20
-115.0901972165074
 10
397.3043449256305
 20
-114.8663306055065
 10
397.5804693287733
 20
-114.8663306055065
 10
397.8566367956096
 20
-114.8663306055065
 10
398.0805249384573
 20
-115.0901972165074
 10
398.0805249384573
 20
-115.3663431514969
 10
398.0805249384573
 20
-115.6424890864865
 10
397.8566367956096
 20
-115.8663341656406
 10
397.5804693287733
 20
-115.8663341656406
 97
        0
 97
        1
330
80
 92
        1
 93
        1
 72
     4
 94
        3
 73
     0
 74
     0
 95
       17
 96
       13
 40
0.0
 40
0.0
 40
0.0
 40
0.0
 40
1.0
 40
1.0
 40
1.0
 40
2.0
 40
2.0
 40
2.0
 40
3.0
 40
3.0
 40
3.0
 40
4.0
 40
4.0
 40
4.0
 40
4.0
 10
407.6282625662787
 20
-85.48035513542245
 10
407.9043869694214
 20
-85.48035513542245
 10
408.1282751122691
 20
-85.70420021457655
 10
408.1282751122691
 20
-85.98034614956612
 10
408.1282751122691
 20
-86.25649208455568
 10
407.9043869694214
 20
-86.48033716370978
 10
407.6282625662787
 20
-86.48033716370978
 10
407.3521381631358
 20
-86.48033716370978
 10
407.1282930839818
 20
-86.25649208455568
 10
407.1282930839818
 20
-85.98034614956612
 10
407.1282930839818
 20
-85.70420021457655
 10
407.3521381631358
 20
-85.48035513542245
 10
407.6282625662787
 20
-85.48035513542245
 97
        0
 97
        1
330
81
 92
        1
 93
        1
 72
     4
 94
        3
 73
     0
 74
     0
 95
       17
 96
       13
 40
0.0
 40
0.0
 40
0.0
 40
0.0
 40
1.0
 40
1.0
 40
1.0
 40
2.0
 40
2.0
 40
2.0
 40
3.0
 40
3.0
 40
3.0
 40
4.0
 40
4.0
 40
4.0
 40
4.0
 10
376.3638487828622
 20
-157.0435365072343
 10
376.0876813160259
 20
-157.0435365072343
 10
375.8637931731782
 20
-156.8196698962334
 10
375.8637931731782
 20
-156.5435239612439
 10
375.8637931731782
 20
-156.2673780262543
 10
376.0876813160259
 20
-156.0435329471002
 10
376.3638487828622
 20
-156.0435329471002
 10
376.639973186005
 20
-156.0435329471002
 10
376.8638182651591
 20
-156.2673780262543
 10
376.8638182651591
 20
-156.5435239612439
 10
376.8638182651591
 20
-156.8196698962334
 10
376.639973186005
 20
-157.0435365072343
 10
376.3638487828622
 20
-157.0435365072343
 97
        0
 97
        1
330
82
 92
        1
 93
        1
 72
     4
 94
        3
 73
     0
 74
     0
 95
       17
 96
       13
 40
0.0
 40
0.0
 40
0.0
 40
0.0
 40
1.0
 40
1.0
 40
1.0
 40
2.0
 40
2.0
 40
2.0
 40
3.0
 40
3.0
 40
3.0
 40
4.0
 40
4.0
 40
4.0
 40
4.0
 10
352.9680761514498
 20
-94.2328355341675
 10
352.6919517483071
 20
-94.2328355341675
 10
352.4680851373062
 20
-94.00899045501338
 10
352.4680851373062
 20
-93.73284452002382
 10
352.4680851373062
 20
-93.45669858503425
 10
352.6919517483071
 20
-93.23285350588015
 10
352.9680761514498
 20
-93.23285350588015
 10
353.2442220864394
 20
-93.23285350588015
 10
353.4680886974403
 20
-93.45669858503425
 10
353.4680886974403
 20
-93.73284452002382
 10
353.4680886974403
 20
-94.00899045501338
 10
353.2442220864394
 20
-94.2328355341675
 10
352.9680761514498
 20
-94.2328355341675
 97
        0
 97
        1
330
83
 92
        1
 93
        1
 72
     4
 94
        3
 73
     0
 74
     0
 95
       17
 96
       13
 40
0.0
 40
0.0
 40
0.0
 40
0.0
 40
1.0
 40
1.0
 40
1.0
 40
2.0
 40
2.0
 40
2.0
 40
3.0
 40
3.0
 40
3.0
 40
4.0
 40
4.0
 40
4.0
 40
4.0
 10
346.5727516155595
 20
-143.9773874558676
 10
346.2966056805699
 20
-143.9773874558676
 10
346.0727390695691
 20
-143.7535423767135
 10
346.0727390695691
 20
-143.477396441724
 10
346.0727390695691
 20
-143.2012505067344
 10
346.2966056805699
 20
-142.9774054275803
 10
346.5727516155595
 20
-142.9774054275803
 10
346.848897550549
 20
-142.9774054275803
 10
347.0727426297032
 20
-143.2012505067344
 10
347.0727426297032
 20
-143.477396441724
 10
347.0727426297032
 20
-143.7535423767135
 10
346.848897550549
 20
-143.9773874558676
 10
346.5727516155595
 20
-143.9773874558676
 97
        0
 97
        1
330
84
 92
        1
 93
        1
 72
     4
 94
        3
 73
     0
 74
     0
 95
       17
 96
       13
 40
0.0
 40
0.0
 40
0.0
 40
0.0
 40
1.0
 40
1.0
 40
1.0
 40
2.0
 40
2.0
 40
2.0
 40
3.0
 40
3.0
 40
3.0
 40
4.0
 40
4.0
 40
4.0
 40
4.0
 10
313.7170051638126
 20
-91.66623939765635
 10
313.440859228823
 20
-91.66623939765635
 10
313.2169926178221
 20
-91.44237278665547
 10
313.2169926178221
 20
-91.16624838351269
 10
313.2169926178221
 20
-90.89010244852314
 10
313.440859228823
 20
-90.66623583752225
 10
313.7170051638126
 20
-90.66623583752225
 10
313.9931510988021
 20
-90.66623583752225
 10
314.2169961779562
 20
-90.89010244852314
 10
314.2169961779562
 20
-91.16624838351269
 10
314.2169961779562
 20
-91.44237278665547
 10
313.9931510988021
 20
-91.66623939765635
 10
313.7170051638126
 20
-91.66623939765635
 97
        0
 97
        1
330
85
 92
        1
 93
        1
 72
     4
 94
        3
 73
     0
 74
     0
 95
       17
 96
       13
 40
0.0
 40
0.0
 40
0.0
 40
0.0
 40
1.0
 40
1.0
 40
1.0
 40
2.0
 40
2.0
 40
2.0
 40
3.0
 40
3.0
 40
3.0
 40
4.0
 40
4.0
 40
4.0
 40
4.0
 10
312.2775150789944
 20
-102.8832119154684
 10
312.0013691440048
 20
-102.8832119154684
 10
311.7775240648508
 20
-102.6593453044675
 10
311.7775240648508
 20
-102.383199369478
 10
311.7775240648508
 20
-102.1070749663352
 10
312.0013691440048
 20
-101.8832083553343
 10
312.2775150789944
 20
-101.8832083553343
 10
312.553661013984
 20
-101.8832083553343
 10
312.7775060931381
 20
-102.1070749663352
 10
312.7775060931381
 20
-102.383199369478
 10
312.7775060931381
 20
-102.6593453044675
 10
312.553661013984
 20
-102.8832119154684
 10
312.2775150789944
 20
-102.8832119154684
 97
        0
 97
        1
330
86
 92
        1
 93
        1
 72
     4
 94
        3
 73
     0
 74
     0
 95
       17
 96
       13
 40
0.0
 40
0.0
 40
0.0
 40
0.0
 40
1.0
 40
1.0
 40
1.0
 40
2.0
 40
2.0
 40
2.0
 40
3.0
 40
3.0
 40
3.0
 40
4.0
 40
4.0
 40
4.0
 40
4.0
 10
308.2284297596399
 20
-107.5320237632645
 10
308.2284297596399
 20
-107.5320237632645
 10
285.3362008970904
 20
-100.018141318854
 10
285.3362008970904
 20
-100.018141318854
 10
285.3362008970904
 20
-100.018141318854
 10
288.9563718285313
 20
-88.68653324877021
 10
288.9563718285313
 20
-88.68653324877021
 10
288.9563718285313
 20
-88.68653324877021
 10
311.9500156894279
 20
-95.99614306275226
 10
311.9500156894279
 20
-95.99614306275226
 10
311.9500156894279
 20
-95.99614306275226
 10
308.2284297596399
 20
-107.5320237632645
 10
308.2284297596399
 20
-107.5320237632645
 97
        0
 97
        1
330
87
 92
        1
 93
        1
 72
     4
 94
        3
 73
     0
 74
     0
 95
       17
 96
       13
 40
0.0
 40
0.0
 40
0.0
 40
0.0
 40
1.0
 40
1.0
 40
1.0
 40
2.0
 40
2.0
 40
2.0
 40
3.0
 40
3.0
 40
3.0
 40
4.0
 40
4.0
 40
4.0
 40
4.0
 10
302.0482083731099
 20
-134.0212337582698
 10
301.7720624381204
 20
-134.0212337582698
 10
301.5482173589663
 20
-133.7973671472689
 10
301.5482173589663
 20
-133.5212212122794
 10
301.5482173589663
 20
-133.2450968091366
 10
301.7720624381204
 20
-133.0212301981357
 10
302.0482083731099
 20
-133.0212301981357
 10
302.3243543080995
 20
-133.0212301981357
 10
302.5481993872536
 20
-133.2450968091366
 10
302.5481993872536
 20
-133.5212212122794
 10
302.5481993872536
 20
-133.7973671472689
 10
302.3243543080995
 20
-134.0212337582698
 10
302.0482083731099
 20
-134.0212337582698
 97
        0
 97
        1
330
88
 92
        1
 93
        1
 72
     4
 94
        3
 73
     0
 74
     0
 95
       17
 96
       13
 40
0.0
 40
0.0
 40
0.0
 40
0.0
 40
1.0
 40
1.0
 40
1.0
 40
2.0
 40
2.0
 40
2.0
 40
3.0
 40
3.0
 40
3.0
 40
4.0
 40
4.0
 40
4.0
 40
4.0
 10
275.2304008643521
 20
-131.0330009980577
 10
275.2304008643521
 20
-131.0330009980577
 10
278.9464100458233
 20
-119.6167297064239
 10
278.9464100458233
 20
-119.6167297064239
 10
278.9464100458233
 20
-119.6167297064239
 10
301.8309951027649
 20
-127.0058135668813
 10
301.8309951027649
 20
-127.0058135668813
 10
301.8309951027649
 20
-127.0058135668813
 10
298.1064593099678
 20
-138.5415650763129
 10
298.1064593099678
 20
-138.5415650763129
 10
298.1064593099678
 20
-138.5415650763129
 10
275.2304008643521
 20
-131.0330009980577
 10
275.2304008643521
 20
-131.0330009980577
 97
        0
 97
        1
330
89
 92
        1
 93
        1
 72
     4
 94
        3
 73
     0
 74
     0
 95
       17
 96
       13
 40
0.0
 40
0.0
 40
0.0
 40
0.0
 40
1.0
 40
1.0
 40
1.0
 40
2.0
 40
2.0
 40
2.0
 40
3.0
 40
3.0
 40
3.0
 40
4.0
 40
4.0
 40
4.0
 40
4.0
 10
285.6999383847925
 20
-147.165758731926
 10
285.4237924498029
 20
-147.165758731926
 10
285.199925838802
 20
-146.9418921209251
 10
285.199925838802
 20
-146.6657461859355
 10
285.199925838802
 20
-146.389600250946
 10
285.4237924498029
 20
-146.1657551717919
 10
285.6999383847925
 20
-146.1657551717919
 10
285.976084319782
 20
-146.1657551717919
 10
286.1999293989362
 20
-146.389600250946
 10
286.1999293989362
 20
-146.6657461859355
 10
286.1999293989362
 20
-146.9418921209251
 10
285.976084319782
 20
-147.165758731926
 10
285.6999383847925
 20
-147.165758731926
 97
        0
 97
        1
330
8A
 92
        1
 93
        1
 72
     4
 94
        3
 73
     0
 74
     0
 95
       17
 96
       13
 40
0.0
 40
0.0
 40
0.0
 40
0.0
 40
1.0
 40
1.0
 40
1.0
 40
2.0
 40
2.0
 40
2.0
 40
3.0
 40
3.0
 40
3.0
 40
4.0
 40
4.0
 40
4.0
 40
4.0
 10
274.8060296961097
 20
-125.1749821667857
 10
274.5298837611201
 20
-125.1749821667857
 10
274.3060171501193
 20
-124.9511370876316
 10
274.3060171501193
 20
-124.674991152642
 10
274.3060171501193
 20
-124.3988452176524
 10
274.5298837611201
 20
-124.1749786066516
 10
274.8060296961097
 20
-124.1749786066516
 10
275.0821540992525
 20
-124.1749786066516
 10
275.3060207102534
 20
-124.3988452176524
 10
275.3060207102534
 20
-124.674991152642
 10
275.3060207102534
 20
-124.9511370876316
 10
275.0821540992525
 20
-125.1749821667857
 10
274.8060296961097
 20
-125.1749821667857
 97
        0
 97
        1
330
8B
 92
        1
 93
        1
 72
     4
 94
        3
 73
     0
 74
     0
 95
       17
 96
       13
 40
0.0
 40
0.0
 40
0.0
 40
0.0
 40
1.0
 40
1.0
 40
1.0
 40
2.0
 40
2.0
 40
2.0
 40
3.0
 40
3.0
 40
3.0
 40
4.0
 40
4.0
 40
4.0
 40
4.0
 10
271.1093991767431
 20
-119.01782138816
 10
271.1093991767431
 20
-119.01782138816
 10
266.7920701101683
 20
-117.7486912750875
 10
266.7920701101683
 20
-117.7486912750875
 10
266.7920701101683
 20
-117.7486912750875
 10
274.1248697231355
 20
-92.8041329045876
 10
274.1248697231355
 20
-92.8041329045876
 10
274.1248697231355
 20
-92.8041329045876
 10
278.4421987897102
 20
-94.07328454950684
 10
278.4421987897102
 20
-94.07328454950684
 10
278.4421987897102
 20
-94.07328454950684
 10
271.1093991767431
 20
-119.01782138816
 10
271.1093991767431
 20
-119.01782138816
 97
        0
 97
        1
330
8C
 92
        1
 93
        1
 72
     4
 94
        3
 73
     0
 74
     0
 95
       17
 96
       13
 40
0.0
 40
0.0
 40
0.0
 40
0.0
 40
1.0
 40
1.0
 40
1.0
 40
2.0
 40
2.0
 40
2.0
 40
3.0
 40
3.0
 40
3.0
 40
4.0
 40
4.0
 40
4.0
 40
4.0
 10
266.452254504242
 20
-93.24532044516741
 10
266.452254504242
 20
-92.96917451017785
 10
266.6761211152429
 20
-92.74532943102375
 10
266.9522670502324
 20
-92.74532943102375
 10
267.228412985222
 20
-92.74532943102375
 10
267.4522580643761
 20
-92.96917451017785
 10
267.4522580643761
 20
-93.24532044516741
 10
267.4522580643761
 20
-93.52146638015696
 10
267.228412985222
 20
-93.74533299115785
 10
266.9522670502324
 20
-93.74533299115785
 10
266.6761211152429
 20
-93.74533299115785
 10
266.452254504242
 20
-93.52146638015696
 10
266.452254504242
 20
-93.24532044516741
 97
        0
 97
        1
330
8D
 92
        1
 93
        1
 72
     4
 94
        3
 73
     0
 74
     0
 95
       17
 96
       13
 40
0.0
 40
0.0
 40
0.0
 40
0.0
 40
1.0
 40
1.0
 40
1.0
 40
2.0
 40
2.0
 40
2.0
 40
3.0
 40
3.0
 40
3.0
 40
4.0
 40
4.0
 40
4.0
 40
4.0
 10
285.0060315585228
 20
-93.00310870070756
 10
285.2821774935124
 20
-93.00310870070756
 10
285.5060225726665
 20
-93.22695377986168
 10
285.5060225726665
 20
-93.50309971485122
 10
285.5060225726665
 20
-93.77924564984079
 10
285.2821774935124
 20
-94.00311226084168
 10
285.0060315585228
 20
-94.00311226084168
 10
284.7298856235333
 20
-94.00311226084168
 10
284.5060190125323
 20
-93.77924564984079
 10
284.5060190125323
 20
-93.50309971485122
 10
284.5060190125323
 20
-93.22695377986168
 10
284.7298856235333
 20
-93.00310870070756
 10
285.0060315585228
 20
-93.00310870070756
 97
        0
 97
        1
330
8E
 92
        1
 93
        1
 72
     4
 94
        3
 73
     0
 74
     0
 95
       17
 96
       13
 40
0.0
 40
0.0
 40
0.0
 40
0.0
 40
1.0
 40
1.0
 40
1.0
 40
2.0
 40
2.0
 40
2.0
 40
3.0
 40
3.0
 40
3.0
 40
4.0
 40
4.0
 40
4.0
 40
4.0
 10
289.4096387351563
 20
-72.16758031100543
 10
289.6857846701458
 20
-72.16758031100543
 10
289.9096297492999
 20
-72.39144692200631
 10
289.9096297492999
 20
-72.66759285699587
 10
289.9096297492999
 20
-72.94371726013864
 10
289.6857846701458
 20
-73.16758387113953
 10
289.4096387351563
 20
-73.16758387113953
 10
289.1334928001667
 20
-73.16758387113953
 10
288.9096261891658
 20
-72.94371726013864
 10
288.9096261891658
 20
-72.66759285699587
 10
288.9096261891658
 20
-72.39144692200631
 10
289.1334928001667
 20
-72.16758031100543
 10
289.4096387351563
 20
-72.16758031100543
 97
        0
 97
        1
330
8F
 92
        1
 93
        1
 72
     4
 94
        3
 73
     0
 74
     0
 95
       98
 96
       94
 40
0.0
 40
0.0
 40
0.0
 40
0.0
 40
1.0
 40
1.0
 40
1.0
 40
2.0
 40
2.0
 40
2.0
 40
3.0
 40
3.0
 40
3.0
 40
4.0
 40
4.0
 40
4.0
 40
5.0
 40
5.0
 40
5.0
 40
6.0
 40
6.0
 40
6.0
 40
7.0
 40
7.0
 40
7.0
 40
8.0
 40
8.0
 40
8.0
 40
9.0
 40
9.0
 40
9.0
 40
10.0
 40
10.0
 40
10.0
 40
11.0
 40
11.0
 40
11.0
 40
12.0
 40
12.0
 40
12.0
 40
13.0
 40
13.0
 40
13.0
 40
14.0
 40
14.0
 40
14.0
 40
15.0
 40
15.0
 40
15.0
 40
16.0
 40
16.0
 40
16.0
 40
17.0
 40
17.0
 40
17.0
 40
18.0
 40
18.0
 40
18.0
 40
19.0
 40
19.0
 40
19.0
 40
20.0
 40
20.0
 40
20.0
 40
21.0
 40
21.0
 40
21.0
 40
22.0
 40
22.0
 40
22.0
 40
23.0
 40
23.0
 40
23.0
 40
24.0
 40
24.0
 40
24.0
 40
25.0
 40
25.0
 40
25.0
 40
26.0
 40
26.0
 40
26.0
 40
27.0
 40
27.0
 40
27.0
 40
28.0
 40
28.0
 40
28.0
 40
29.0
 40
29.0
 40
29.0
 40
30.0
 40
30.0
 40
30.0
 40
31.0
 40
31.0
 40
31.0
 40
31.0
 10
467.8451726803477
 20
-108.4330023600445
 10
467.5784361624023
 20
-104.678365045445
 10
467.8802265269101
 20
-103.2904222018249
 10
465.4659897382342
 20
-99.77278592476384
 10
448.7061169668165
 20
-91.33219432666782
 10
426.9000405833791
 20
-84.47466716773767
 10
408.6987398609329
 20
-77.97947792646867
 10
408.6987398609329
 20
-77.97947792646867
 10
398.8682460211597
 20
-76.35655803890782
 10
386.9850781638874
 20
-74.37300124958166
 10
386.9850781638874
 20
-74.37300124958166
 10
386.6524541947866
 20
-76.23563518737555
 10
386.6524541947866
 20
-76.23563518737555
 10
386.6524541947866
 20
-76.23563518737555
 10
381.730360147623
 20
-75.35666213800762
 10
381.730360147623
 20
-75.35666213800762
 10
381.730360147623
 20
-75.35666213800762
 10
382.0532086582844
 20
-73.5486760273485
 10
382.0532086582844
 20
-73.5486760273485
 10
372.8274582672532
 20
-72.00454116716596
 10
363.0408032675297
 20
-70.35390979279563
 10
355.9762689336296
 20
-69.12954438918463
 10
355.9762689336296
 20
-69.12954438918463
 10
354.8060561246774
 20
-81.37341374376255
 10
354.8060561246774
 20
-81.37341374376255
 10
354.8060561246774
 20
-81.37341374376255
 10
350.7914432920222
 20
-80.95024835893996
 10
350.7914432920222
 20
-80.95024835893996
 10
350.7914432920222
 20
-80.95024835893996
 10
342.7551336491202
 20
-148.8128158197303
 10
342.7551336491202
 20
-148.8128158197303
 10
342.7551336491202
 20
-148.8128158197303
 10
331.5302589435389
 20
-147.4730827810571
 10
331.5302589435389
 20
-147.4730827810571
 10
331.5302589435389
 20
-147.4730827810571
 10
339.7108750235793
 20
-66.4221515065607
 10
339.7108750235793
 20
-66.4221515065607
 10
339.3789616054222
 20
-66.36954920487029
 10
323.3617006976969
 20
-64.25077241774807
 10
317.9255338085937
 20
-64.22568781624609
 10
319.306909438945
 20
-64.24713353564178
 10
295.6867534322089
 20
-64.8942516588524
 10
285.4884310538449
 20
-67.34552322399479
 10
280.8993270171775
 20
-68.44851360729109
 10
274.6569216571387
 20
-70.0612058676301
 10
270.4766212634898
 20
-71.84938267924903
 10
270.4766212634898
 20
-71.84938267924903
 10
255.6221662094234
 20
-115.7608711800984
 10
254.4995387818612
 20
-119.3080276190987
 10
254.581553586257
 20
-122.5821602408931
 10
264.7106510772143
 20
-134.0329901466133
 10
270.1351907690547
 20
-140.2664597902372
 10
273.370867512495
 20
-144.1207249599008
 10
283.8392638450558
 20
-153.3043590586248
 10
296.5454219500607
 20
-154.8483647277267
 10
300.1649469260981
 20
-155.2881957619592
 10
306.917312545341
 20
-156.3597927126461
 10
310.6043183291957
 20
-156.9278243626235
 10
323.819317037372
 20
-158.9637681351723
 10
333.036863794779
 20
-160.308711880767
 10
346.2214164716044
 20
-161.393593980919
 10
348.0832321992205
 20
-161.5467715389319
 10
351.886251573541
 20
-161.6868792659476
 10
353.7396268172183
 20
-161.6314993560222
 10
356.2383330408232
 20
-161.5568269113794
 10
360.147310633162
 20
-161.4425789323498
 10
364.5843782996959
 20
-161.2513330692249
 10
364.5843782996959
 20
-161.2513330692249
 10
365.1452398446946
 20
-158.1106763656372
 10
365.1452398446946
 20
-158.1106763656372
 10
365.1452398446946
 20
-158.1106763656372
 10
370.0673338918582
 20
-158.9896494150052
 10
370.0673338918582
 20
-158.9896494150052
 10
370.0673338918582
 20
-158.9896494150052
 10
369.7076228595045
 20
-161.0040182770775
 10
369.7076228595045
 20
-161.0040182770775
 10
378.1729976132476
 20
-160.5477584437498
 10
387.2882035028959
 20
-159.7972228604413
 10
391.9337855736746
 20
-158.5337125593791
 10
421.9893584150105
 20
-150.3590608008976
 10
405.4552685889573
 20
-158.683918722536
 10
423.1455755235539
 20
-158.337040670865
 10
431.3548074279686
 20
-155.7933328874839
 10
439.1015352634885
 20
-137.9873999356637
 10
455.4258618381835
 20
-134.7943347170067
 10
461.1616013115759
 20
-133.6724178403883
 10
462.8255824309515
 20
-127.6872534538638
 10
464.6095390006011
 20
-123.8501061023925
 10
465.3695270646472
 20
-122.2154944220286
 10
466.1343382623726
 20
-120.4112763845564
 10
466.5128681288145
 20
-118.6159079361121
 10
467.4714659475852
 20
-114.3745432249871
 10
468.1044161156128
 20
-112.0803249502785
 10
467.8451726803477
 20
-108.4330023600445
 97
        0
 97
        1
330
90
 75
     0
 76
     1
 98
        1
 10
0.0
 20
0.0
450
        0
451
        0
460
0.0
461
0.0
452
        0
462
0.0
453
        0
470

  0
ENDSEC
  0
SECTION
  2
OBJECTS
  0
DICTIONARY
  5
C
330
0
100
AcDbDictionary
281
     1
  3
ACAD_COLOR
350
63
  3
ACAD_DETAILVIEWSTYLE
350
6A
  3
ACAD_GROUP
350
D
  3
ACAD_LAYOUT
350
62
  3
ACAD_MATERIAL
350
10
  3
ACAD_MLEADERSTYLE
350
66
  3
ACAD_MLINESTYLE
350
5F
  3
ACAD_PLOTSETTINGS
350
61
  3
ACAD_PLOTSTYLENAME
350
E
  3
ACAD_SCALELIST
350
42
  3
ACAD_SECTIONVIEWSTYLE
350
68
  3
ACAD_TABLESTYLE
350
64
  3
ACAD_VISUALSTYLE
350
29
  3
ACDB_RECOMPOSE_DATA
350
9A
  3
AcDbVariableDictionary
350
92
  0
DICTIONARY
  5
63
102
{ACAD_REACTORS
330
C
102
}
330
C
100
AcDbDictionary
281
     1
  0
DICTIONARY
  5
6A
102
{ACAD_REACTORS
330
C
102
}
330
C
100
AcDbDictionary
281
     1
  3
Imperial24
350
6B
  0
DICTIONARY
  5
D
102
{ACAD_REACTORS
330
C
102
}
330
C
100
AcDbDictionary
281
     1
  0
DICTIONARY
  5
62
102
{ACAD_REACTORS
330
C
102
}
330
C
100
AcDbDictionary
281
     1
  3
Layout1
350
6F
  3
Layout2
350
77
  3
Model
350
73
  0
DICTIONARY
  5
10
102
{ACAD_REACTORS
330
C
102
}
330
C
100
AcDbDictionary
281
     1
  3
ByBlock
350
19
  3
ByLayer
350
11
  3
Global
350
21
  0
DICTIONARY
  5
66
102
{ACAD_REACTORS
330
C
102
}
330
C
100
AcDbDictionary
281
     1
  3
Standard
350
67
  0
DICTIONARY
  5
5F
102
{ACAD_REACTORS
330
C
102
}
330
C
100
AcDbDictionary
281
     1
  3
Standard
350
60
  0
DICTIONARY
  5
61
102
{ACAD_REACTORS
330
C
102
}
330
C
100
AcDbDictionary
281
     1
  0
ACDBDICTIONARYWDFLT
  5
E
102
{ACAD_REACTORS
330
C
102
}
330
C
100
AcDbDictionary
281
     1
  3
Normal
350
F
100
AcDbDictionaryWithDefault
340
F
  0
DICTIONARY
  5
42
102
{ACAD_REACTORS
330
C
102
}
330
C
100
AcDbDictionary
281
     1
  3
A0
350
43
  3
A1
350
44
  3
A2
350
45
  3
A3
350
46
  3
A4
350
47
  3
A5
350
48
  3
A6
350
49
  3
A7
350
4A
  3
A8
350
4B
  3
A9
350
4C
  3
B0
350
4D
  3
B1
350
4E
  3
B2
350
4F
  3
B3
350
50
  3
B4
350
51
  3
B5
350
52
  3
B6
350
53
  0
DICTIONARY
  5
68
102
{ACAD_REACTORS
330
C
102
}
330
C
100
AcDbDictionary
281
     1
  3
Imperial24
350
69
  0
DICTIONARY
  5
64
102
{ACAD_REACTORS
330
C
102
}
330
C
100
AcDbDictionary
281
     1
  3
Standard
350
65
  0
DICTIONARY
  5
29
102
{ACAD_REACTORS
330
C
102
}
330
C
100
AcDbDictionary
281
     1
  3
2dWireframe
350
2F
  3
Basic
350
2E
  3
Brighten
350
35
  3
ColorChange
350
39
  3
Conceptual
350
32
  3
Dim
350
34
  3
EdgeColorOff
350
41
  3
Facepattern
350
38
  3
Flat
350
2A
  3
FlatWithEdges
350
2B
  3
Gouraud
350
2C
  3
GouraudWithEdges
350
2D
  3
Hidden
350
31
  3
JitterOff
350
3F
  3
Linepattern
350
37
  3
OverhangOff
350
40
  3
Realistic
350
33
  3
Shaded
350
3E
  3
Shaded with edges
350
3D
  3
Shades of Gray
350
3A
  3
Sketchy
350
3B
  3
Thicken
350
36
  3
Wireframe
350
30
  3
X-Ray
350
3C
  0
XRECORD
  5
9A
102
{ACAD_REACTORS
330
C
102
}
330
C
100
AcDbXrecord
280
     1
 90
        1
330
65
  0
DICTIONARY
  5
92
102
{ACAD_REACTORS
330
C
102
}
330
C
100
AcDbDictionary
281
     1
  3
CANNOSCALE
350
97
  3
CMLEADERSTYLE
350
94
  3
CTABLESTYLE
350
93
  3
CVIEWDETAILSTYLE
350
95
  3
CVIEWSECTIONSTYLE
350
96
  0
ACDBDETAILVIEWSTYLE
  5
6B
102
{ACAD_REACTORS
330
6A
102
}
330
6A
100
AcDbModelDocViewStyle
 70
     0
  3
Imperial24
290
     1
300
Imperial24
 90
        0
100
AcDbDetailViewStyle
 70
     0
 71
     0
 90
        3
 71
     1
340
55
 62
   256
 40
0.24
340
0
 62
   256
 40
0.24
300

 40
0.36
280
     3
 71
     2
340
5D
 90
       25
 62
   256
 71
     3
340
55
 62
   256
 40
0.24
 90
        1
 40
0.75
 90
        1
300
%<\AcVar ViewType \f "%tc1">% %<\AcVar ViewDetailId>%\PSCALE %<\AcVar ViewScale \f "%sn">%
 71
     4
340
5D
 90
       25
 62
   256
340
5D
 90
       25
 62
   256
280
     0
  0
LAYOUT
  5
6F
102
{ACAD_REACTORS
330
62
102
}
330
62
100
AcDbPlotSettings
  1

  2

  4

  6

 40
0.0
 41
0.0
 42
0.0
 43
0.0
 44
0.0
 45
0.0
 46
0.0
 47
0.0
 48
0.0
 49
0.0
140
0.0
141
0.0
142
1.0
143
1.0
 70
   688
 72
     0
 73
     0
 74
     5
  7

 75
    16
147
1.0
 76
     0
 77
     2
 78
   300
148
0.0
149
0.0
100
AcDbLayout
  1
Layout1
 70
     1
 71
     1
 10
0.0
 20
0.0
 11
12.0
 21
9.0
 12
0.0
 22
0.0
 32
0.0
 14
0.0
 24
0.0
 34
0.0
 15
0.0
 25
0.0
 35
0.0
146
0.0
 13
0.0
 23
0.0
 33
0.0
 16
1.0
 26
0.0
 36
0.0
 17
0.0
 27
1.0
 37
0.0
 76
     0
330
6C
  0
LAYOUT
  5
77
102
{ACAD_REACTORS
330
62
102
}
330
62
100
AcDbPlotSettings
  1

  2

  4

  6

 40
0.0
 41
0.0
 42
0.0
 43
0.0
 44
0.0
 45
0.0
 46
0.0
 47
0.0
 48
0.0
 49
0.0
140
0.0
141
0.0
142
1.0
143
1.0
 70
   688
 72
     0
 73
     0
 74
     5
  7

 75
    16
147
1.0
 76
     0
 77
     2
 78
   300
148
0.0
149
0.0
100
AcDbLayout
  1
Layout2
 70
     1
 71
     2
 10
0.0
 20
0.0
 11
12.0
 21
9.0
 12
0.0
 22
0.0
 32
0.0
 14
0.0
 24
0.0
 34
0.0
 15
0.0
 25
0.0
 35
0.0
146
0.0
 13
0.0
 23
0.0
 33
0.0
 16
1.0
 26
0.0
 36
0.0
 17
0.0
 27
1.0
 37
0.0
 76
     0
330
74
  0
LAYOUT
  5
73
102
{ACAD_REACTORS
330
62
102
}
330
62
100
AcDbPlotSettings
  1

  2

  4

  6

 40
0.0
 41
0.0
 42
0.0
 43
0.0
 44
0.0
 45
0.0
 46
0.0
 47
0.0
 48
0.0
 49
0.0
140
0.0
141
0.0
142
1.0
143
1.0
 70
  1712
 72
     0
 73
     0
 74
     0
  7

 75
     0
147
1.0
 76
     0
 77
     2
 78
   300
148
0.0
149
0.0
100
AcDbLayout
  1
Model
 70
     1
 71
     0
 10
0.0
 20
0.0
 11
12.0
 21
9.0
 12
0.0
 22
0.0
 32
0.0
 14
0.0
 24
0.0
 34
0.0
 15
0.0
 25
0.0
 35
0.0
146
0.0
 13
0.0
 23
0.0
 33
0.0
 16
1.0
 26
0.0
 36
0.0
 17
0.0
 27
1.0
 37
0.0
 76
     0
330
70
  0
MATERIAL
  5
19
102
{ACAD_XDICTIONARY
360
1A
102
}
102
{ACAD_REACTORS
330
10
102
}
330
10
100
AcDbMaterial
  1
ByBlock
 72
     0
 43
0.0208333333333333
 43
0.0
 43
0.0
 43
0.0
 43
0.0
 43
0.0208333333333333
 43
0.0
 43
0.0
 43
0.0
 43
0.0
 43
1.0
 43
0.0
 43
0.0
 43
0.0
 43
0.0
 43
1.0
 77
     0
 47
0.0208333333333333
 47
0.0
 47
0.0
 47
0.0
 47
0.0
 47
0.0208333333333333
 47
0.0
 47
0.0
 47
0.0
 47
0.0
 47
1.0
 47
0.0
 47
0.0
 47
0.0
 47
0.0
 47
1.0
171
     0
 49
0.0208333333333333
 49
0.0
 49
0.0
 49
0.0
 49
0.0
 49
0.0208333333333333
 49
0.0
 49
0.0
 49
0.0
 49
0.0
 49
1.0
 49
0.0
 49
0.0
 49
0.0
 49
0.0
 49
1.0
175
     0
142
0.0208333333333333
142
0.0
142
0.0
142
0.0
142
0.0
142
0.0208333333333333
142
0.0
142
0.0
142
0.0
142
0.0
142
1.0
142
0.0
142
0.0
142
0.0
142
0.0
142
1.0
179
     0
144
0.0208333333333333
144
0.0
144
0.0
144
0.0
144
0.0
144
0.0208333333333333
144
0.0
144
0.0
144
0.0
144
0.0
144
1.0
144
0.0
144
0.0
144
0.0
144
0.0
144
1.0
147
0.0208333333333333
147
0.0
147
0.0
147
0.0
147
0.0
147
0.0208333333333333
147
0.0
147
0.0
147
0.0
147
0.0
147
1.0
147
0.0
147
0.0
147
0.0
147
0.0
147
1.0
  0
MATERIAL
  5
11
102
{ACAD_XDICTIONARY
360
12
102
}
102
{ACAD_REACTORS
330
10
102
}
330
10
100
AcDbMaterial
  1
ByLayer
 72
     0
 43
0.0208333333333333
 43
0.0
 43
0.0
 43
0.0
 43
0.0
 43
0.0208333333333333
 43
0.0
 43
0.0
 43
0.0
 43
0.0
 43
1.0
 43
0.0
 43
0.0
 43
0.0
 43
0.0
 43
1.0
 77
     0
 47
0.0208333333333333
 47
0.0
 47
0.0
 47
0.0
 47
0.0
 47
0.0208333333333333
 47
0.0
 47
0.0
 47
0.0
 47
0.0
 47
1.0
 47
0.0
 47
0.0
 47
0.0
 47
0.0
 47
1.0
171
     0
 49
0.0208333333333333
 49
0.0
 49
0.0
 49
0.0
 49
0.0
 49
0.0208333333333333
 49
0.0
 49
0.0
 49
0.0
 49
0.0
 49
1.0
 49
0.0
 49
0.0
 49
0.0
 49
0.0
 49
1.0
175
     0
142
0.0208333333333333
142
0.0
142
0.0
142
0.0
142
0.0
142
0.0208333333333333
142
0.0
142
0.0
142
0.0
142
0.0
142
1.0
142
0.0
142
0.0
142
0.0
142
0.0
142
1.0
179
     0
144
0.0208333333333333
144
0.0
144
0.0
144
0.0
144
0.0
144
0.0208333333333333
144
0.0
144
0.0
144
0.0
144
0.0
144
1.0
144
0.0
144
0.0
144
0.0
144
0.0
144
1.0
147
0.0208333333333333
147
0.0
147
0.0
147
0.0
147
0.0
147
0.0208333333333333
147
0.0
147
0.0
147
0.0
147
0.0
147
1.0
147
0.0
147
0.0
147
0.0
147
0.0
147
1.0
  0
MATERIAL
  5
21
102
{ACAD_XDICTIONARY
360
22
102
}
102
{ACAD_REACTORS
330
10
102
}
330
10
100
AcDbMaterial
  1
Global
 72
     0
 43
0.0208333333333333
 43
0.0
 43
0.0
 43
0.0
 43
0.0
 43
0.0208333333333333
 43
0.0
 43
0.0
 43
0.0
 43
0.0
 43
1.0
 43
0.0
 43
0.0
 43
0.0
 43
0.0
 43
1.0
 77
     0
 47
0.0208333333333333
 47
0.0
 47
0.0
 47
0.0
 47
0.0
 47
0.0208333333333333
 47
0.0
 47
0.0
 47
0.0
 47
0.0
 47
1.0
 47
0.0
 47
0.0
 47
0.0
 47
0.0
 47
1.0
171
     0
 49
0.0208333333333333
 49
0.0
 49
0.0
 49
0.0
 49
0.0
 49
0.0208333333333333
 49
0.0
 49
0.0
 49
0.0
 49
0.0
 49
1.0
 49
0.0
 49
0.0
 49
0.0
 49
0.0
 49
1.0
175
     0
142
0.0208333333333333
142
0.0
142
0.0
142
0.0
142
0.0
142
0.0208333333333333
142
0.0
142
0.0
142
0.0
142
0.0
142
1.0
142
0.0
142
0.0
142
0.0
142
0.0
142
1.0
179
     0
144
0.0208333333333333
144
0.0
144
0.0
144
0.0
144
0.0
144
0.0208333333333333
144
0.0
144
0.0
144
0.0
144
0.0
144
1.0
144
0.0
144
0.0
144
0.0
144
0.0
144
1.0
147
0.0208333333333333
147
0.0
147
0.0
147
0.0
147
0.0
147
0.0208333333333333
147
0.0
147
0.0
147
0.0
147
0.0
147
1.0
147
0.0
147
0.0
147
0.0
147
0.0
147
1.0
  0
MLEADERSTYLE
  5
67
102
{ACAD_REACTORS
330
66
102
}
330
66
100
AcDbMLeaderStyle
179
     2
170
     2
171
     1
172
     0
 90
        2
 40
0.0
 41
0.0
173
     1
 91
-1056964608
340
5B
 92
       -2
290
     1
 42
0.09
291
     1
 43
0.36
  3
Standard
 44
0.18
300

342
55
174
     1
178
     6
175
     1
176
     0
 93
-1056964608
 45
0.18
292
     0
297
     0
 46
0.18
 94
-1056964608
 47
1.0
 49
1.0
140
1.0
293
     1
141
0.0
294
     1
177
     0
142
1.0
295
     1
296
     0
143
0.125
271
     0
272
     9
273
     9
298
     1
  0
MLINESTYLE
  5
60
102
{ACAD_REACTORS
330
5F
102
}
330
5F
100
AcDbMlineStyle
  2
STANDARD
 70
     0
  3

 62
   256
 51
90.0
 52
90.0
 71
     2
 49
0.5
 62
   256
  6
BYLAYER
 49
-0.5
 62
   256
  6
BYLAYER
  0
ACDBPLACEHOLDER
  5
F
102
{ACAD_REACTORS
330
E
102
}
330
E
  0
SCALE
  5
43
102
{ACAD_REACTORS
330
42
102
}
330
42
100
AcDbScale
 70
     0
300
1:1
140
1.0
141
1.0
290
     1
  0
SCALE
  5
44
102
{ACAD_REACTORS
330
42
102
}
330
42
100
AcDbScale
 70
     0
300
1/128" = 1'-0"
140
0.0078125
141
12.0
290
     0
  0
SCALE
  5
45
102
{ACAD_REACTORS
330
42
102
}
330
42
100
AcDbScale
 70
     0
300
1/64" = 1'-0"
140
0.015625
141
12.0
290
     0
  0
SCALE
  5
46
102
{ACAD_REACTORS
330
42
102
}
330
42
100
AcDbScale
 70
     0
300
1/32" = 1'-0"
140
0.03125
141
12.0
290
     0
  0
SCALE
  5
47
102
{ACAD_REACTORS
330
42
102
}
330
42
100
AcDbScale
 70
     0
300
1/16" = 1'-0"
140
0.0625
141
12.0
290
     0
  0
SCALE
  5
48
102
{ACAD_REACTORS
330
42
102
}
330
42
100
AcDbScale
 70
     0
300
3/32" = 1'-0"
140
0.09375
141
12.0
290
     0
  0
SCALE
  5
49
102
{ACAD_REACTORS
330
42
102
}
330
42
100
AcDbScale
 70
     0
300
1/8" = 1'-0"
140
0.125
141
12.0
290
     0
  0
SCALE
  5
4A
102
{ACAD_REACTORS
330
42
102
}
330
42
100
AcDbScale
 70
     0
300
3/16" = 1'-0"
140
0.1875
141
12.0
290
     0
  0
SCALE
  5
4B
102
{ACAD_REACTORS
330
42
102
}
330
42
100
AcDbScale
 70
     0
300
1/4" = 1'-0"
140
0.25
141
12.0
290
     0
  0
SCALE
  5
4C
102
{ACAD_REACTORS
330
42
102
}
330
42
100
AcDbScale
 70
     0
300
3/8" = 1'-0"
140
0.375
141
12.0
290
     0
  0
SCALE
  5
4D
102
{ACAD_REACTORS
330
42
102
}
330
42
100
AcDbScale
 70
     0
300
1/2" = 1'-0"
140
0.5
141
12.0
290
     0
  0
SCALE
  5
4E
102
{ACAD_REACTORS
330
42
102
}
330
42
100
AcDbScale
 70
     0
300
3/4" = 1'-0"
140
0.75
141
12.0
290
     0
  0
SCALE
  5
4F
102
{ACAD_REACTORS
330
42
102
}
330
42
100
AcDbScale
 70
     0
300
1" = 1'-0"
140
1.0
141
12.0
290
     0
  0
SCALE
  5
50
102
{ACAD_REACTORS
330
42
102
}
330
42
100
AcDbScale
 70
     0
300
1-1/2" = 1'-0"
140
1.5
141
12.0
290
     0
  0
SCALE
  5
51
102
{ACAD_REACTORS
330
42
102
}
330
42
100
AcDbScale
 70
     0
300
3" = 1'-0"
140
3.0
141
12.0
290
     0
  0
SCALE
  5
52
102
{ACAD_REACTORS
330
42
102
}
330
42
100
AcDbScale
 70
     0
300
6" = 1'-0"
140
6.0
141
12.0
290
     0
  0
SCALE
  5
53
102
{ACAD_REACTORS
330
42
102
}
330
42
100
AcDbScale
 70
     0
300
1'-0" = 1'-0"
140
12.0
141
12.0
290
     0
  0
ACDBSECTIONVIEWSTYLE
  5
69
102
{ACAD_REACTORS
330
68
102
}
330
68
100
AcDbModelDocViewStyle
 70
     0
  3
Imperial24
290
     1
300
Imperial24
 90
        0
100
AcDbSectionViewStyle
 70
     0
 71
     0
 90
       78
 71
     1
340
55
 62
   256
 40
0.24
340
0
340
0
 62
   256
 40
0.24
300
I, O, Q, S, X, Z
 40
0.48
 90
        3
 40
0.18
 90
        1
 71
     2
340
5D
 90
       25
 62
   256
340
5D
 90
       50
 62
   256
 40
0.24
 40
0.0
 40
0.24
 71
     3
340
55
 62
   256
 40
0.24
 90
        1
 40
0.75
 90
        1
300
%<\AcVar ViewType \f "%tc1">% %<\AcVar ViewSectionStartId>%-%<\AcVar ViewSectionEndId>%\PSCALE %<\AcVar ViewScale \f "%sn">%
 71
     4
 62
   256
 62
   257
300
ANSI31
 40
1.0
 90
        0
290
     0
290
     0
 90
        6
 40
0.0
 40
1.570796326794896
 40
0.2617993877991494
 40
1.308996938995747
 40
-0.2617993877991494
 40
1.832595714594046
  0
TABLESTYLE
  5
65
102
{ACAD_XDICTIONARY
360
98
102
}
102
{ACAD_REACTORS
330
64
102
}
330
64
100
AcDbTableStyle
280
     0
  3
Standard
 70
     0
 71
     0
 40
0.06
 41
0.06
280
     0
281
     0
  7
Standard
140
0.18
170
     2
 62
     0
 63
     7
283
     0
 90
      512
 91
        0
  1

274
    -2
284
     1
 64
     0
275
    -2
285
     1
 65
     0
276
    -2
286
     1
 66
     0
277
    -2
287
     1
 67
     0
278
    -2
288
     1
 68
     0
279
    -2
289
     1
 69
     0
  7
Standard
140
0.25
170
     5
 62
     0
 63
     7
283
     0
 90
      512
 91
        0
  1

274
    -2
284
     1
 64
     0
275
    -2
285
     1
 65
     0
276
    -2
286
     1
 66
     0
277
    -2
287
     1
 67
     0
278
    -2
288
     1
 68
     0
279
    -2
289
     1
 69
     0
  7
Standard
140
0.18
170
     5
 62
     0
 63
     7
283
     0
 90
      512
 91
        0
  1

274
    -2
284
     1
 64
     0
275
    -2
285
     1
 65
     0
276
    -2
286
     1
 66
     0
277
    -2
287
     1
 67
     0
278
    -2
288
     1
 68
     0
279
    -2
289
     1
 69
     0
  0
VISUALSTYLE
  5
2F
102
{ACAD_REACTORS
330
29
102
}
330
29
100
AcDbVisualStyle
  2
2dWireframe
 70
     4
177
     3
291
     0
 70
    58
 90
        0
176
     1
 90
        2
176
     1
 90
        0
176
     1
 90
        0
176
     1
 40
0.6
176
     1
 40
30.0
176
     1
 62
     7
420
 16777215
176
     1
 90
        1
176
     1
 90
        4
176
     1
 62
     7
176
     1
 62
   257
176
     1
 90
        1
176
     1
 90
        1
176
     1
 40
1.0
176
     1
 90
        0
176
     1
 62
   257
176
     1
 40
1.0
176
     1
 90
        1
176
     1
 90
        6
176
     1
 90
        2
176
     1
 62
     7
176
     1
 90
        5
176
     1
 90
        0
176
     1
 90
        0
176
     1
290
     0
176
     1
 90
        1
176
     1
 40
0.0
176
     1
 90
        0
176
     1
290
     1
176
     1
290
     1
176
     1
290
     0
176
     1
290
     0
176
     1
290
     0
176
     1
290
     0
176
     1
290
     0
176
     1
290
     0
176
     1
290
     0
176
     1
 90
       50
176
     1
 40
0.0
176
     1
 40
1.0
176
     1
 90
        0
176
     1
 62
    18
420
        0
176
     1
 90
       50
176
     1
 90
        3
176
     1
 62
     5
420
      255
176
     1
290
     0
176
     1
 90
       50
176
     1
 90
       50
176
     1
 90
       50
176
     1
290
     0
176
     1
 90
       50
176
     1
 62
   256
176
     0
 40
1.0
176
     0
 90
        2
176
     1
  1
strokes_ogs.tif
176
     1
290
     0
176
     1
 40
1.0
176
     1
 40
1.0
176
     1
  0
VISUALSTYLE
  5
2E
102
{ACAD_REACTORS
330
29
102
}
330
29
100
AcDbVisualStyle
  2
Basic
 70
     7
177
     3
291
     1
 70
    58
 90
        1
176
     1
 90
        0
176
     1
 90
        1
176
     1
 90
        0
176
     1
 40
0.6
176
     1
 40
30.0
176
     1
 62
     7
420
 16777215
176
     1
 90
        0
176
     1
 90
        4
176
     1
 62
     7
176
     1
 62
   257
176
     1
 90
        1
176
     1
 90
        1
176
     1
 40
1.0
176
     1
 90
        8
176
     1
 62
     7
176
     1
 40
1.0
176
     1
 90
        1
176
     1
 90
        6
176
     1
 90
        2
176
     1
 62
     7
176
     1
 90
        5
176
     1
 90
        0
176
     1
 90
        0
176
     1
290
     0
176
     1
 90
        1
176
     1
 40
0.0
176
     1
 90
        0
176
     1
290
     0
176
     1
290
     1
176
     1
290
     1
176
     1
290
     0
176
     1
290
     0
176
     1
290
     0
176
     1
290
     0
176
     1
290
     0
176
     1
290
     0
176
     1
 90
       50
176
     1
 40
0.0
176
     1
 40
1.0
176
     1
 90
        0
176
     1
 62
    18
420
        0
176
     1
 90
       50
176
     1
 90
        3
176
     1
 62
     5
420
      255
176
     1
290
     0
176
     1
 90
       50
176
     1
 90
       50
176
     1
 90
       50
176
     1
290
     0
176
     1
 90
       50
176
     1
 62
   256
176
     0
 40
1.0
176
     0
 90
        2
176
     1
  1
strokes_ogs.tif
176
     1
290
     0
176
     1
 40
1.0
176
     1
 40
1.0
176
     1
  0
VISUALSTYLE
  5
35
102
{ACAD_REACTORS
330
29
102
}
330
29
100
AcDbVisualStyle
  2
Brighten
 70
    12
177
     3
291
     1
 70
    58
 90
        2
176
     1
 90
        2
176
     1
 90
        0
176
     1
 90
        0
176
     1
 40
0.6
176
     1
 40
30.0
176
     1
 62
     7
420
 16777215
176
     1
 90
        1
176
     1
 90
        4
176
     1
 62
     7
176
     1
 62
   257
176
     1
 90
        1
176
     1
 90
        1
176
     1
 40
1.0
176
     1
 90
        8
176
     1
 62
     7
176
     1
 40
1.0
176
     1
 90
        1
176
     1
 90
        6
176
     1
 90
        2
176
     1
 62
     7
176
     1
 90
        5
176
     1
 90
        0
176
     1
 90
        0
176
     1
290
     0
176
     1
 90
        1
176
     1
 40
50.0
176
     1
 90
        0
176
     1
290
     0
176
     1
290
     1
176
     1
290
     1
176
     1
290
     0
176
     1
290
     0
176
     1
290
     0
176
     1
290
     0
176
     1
290
     0
176
     1
290
     0
176
     1
 90
       50
176
     1
 40
0.0
176
     1
 40
1.0
176
     1
 90
        0
176
     1
 62
    18
420
        0
176
     1
 90
       50
176
     1
 90
        3
176
     1
 62
     5
420
      255
176
     1
290
     0
176
     1
 90
       50
176
     1
 90
       50
176
     1
 90
       50
176
     1
290
     0
176
     1
 90
       50
176
     1
 62
   256
176
     0
 40
1.0
176
     0
 90
        2
176
     1
  1
strokes_ogs.tif
176
     1
290
     0
176
     1
 40
1.0
176
     1
 40
1.0
176
     1
  0
VISUALSTYLE
  5
39
102
{ACAD_REACTORS
330
29
102
}
330
29
100
AcDbVisualStyle
  2
ColorChange
 70
    16
177
     3
291
     1
 70
    58
 90
        2
176
     1
 90
        2
176
     1
 90
        3
176
     1
 90
        0
176
     1
 40
0.6
176
     1
 40
30.0
176
     1
 62
     8
420
  8421504
176
     1
 90
        1
176
     1
 90
        4
176
     1
 62
     7
176
     1
 62
   257
176
     1
 90
        1
176
     1
 90
        1
176
     1
 40
1.0
176
     1
 90
        8
176
     1
 62
     8
420
  8421504
176
     1
 40
1.0
176
     1
 90
        1
176
     1
 90
        6
176
     1
 90
        2
176
     1
 62
     7
176
     1
 90
        5
176
     1
 90
        0
176
     1
 90
        0
176
     1
290
     0
176
     1
 90
        1
176
     1
 40
0.0
176
     1
 90
        0
176
     1
290
     0
176
     1
290
     1
176
     1
290
     1
176
     1
290
     0
176
     1
290
     0
176
     1
290
     0
176
     1
290
     0
176
     1
290
     0
176
     1
290
     0
176
     1
 90
       50
176
     1
 40
0.0
176
     1
 40
1.0
176
     1
 90
        0
176
     1
 62
    18
420
        0
176
     1
 90
       50
176
     1
 90
        3
176
     1
 62
     5
420
      255
176
     1
290
     0
176
     1
 90
       50
176
     1
 90
       50
176
     1
 90
       50
176
     1
290
     0
176
     1
 90
       50
176
     1
 62
   256
176
     0
 40
1.0
176
     0
 90
        2
176
     1
  1
strokes_ogs.tif
176
     1
290
     0
176
     1
 40
1.0
176
     1
 40
1.0
176
     1
  0
VISUALSTYLE
  5
32
102
{ACAD_REACTORS
330
29
102
}
330
29
100
AcDbVisualStyle
  2
Conceptual
 70
     9
177
     3
291
     0
 70
    58
 90
        3
176
     1
 90
        2
176
     1
 90
        0
176
     1
 90
        0
176
     1
 40
0.6
176
     1
 40
30.0
176
     1
 62
     7
420
 16777215
176
     1
 90
        2
176
     1
 90
        2
176
     1
 62
     7
176
     1
 62
   257
176
     1
 90
        1
176
     1
 90
        1
176
     1
 40
179.0
176
     1
 90
        8
176
     1
 62
     7
176
     1
 40
1.0
176
     1
 90
        1
176
     1
 90
        6
176
     1
 90
        2
176
     1
 62
     7
176
     1
 90
        3
176
     1
 90
        0
176
     1
 90
        0
176
     1
290
     0
176
     1
 90
        1
176
     1
 40
0.0
176
     1
 90
        0
176
     1
290
     0
176
     1
290
     1
176
     1
290
     1
176
     1
290
     0
176
     1
290
     0
176
     1
290
     0
176
     1
290
     0
176
     1
290
     0
176
     1
290
     0
176
     1
 90
       50
176
     1
 40
0.0
176
     1
 40
1.0
176
     1
 90
        0
176
     1
 62
    18
420
        0
176
     1
 90
       50
176
     1
 90
        3
176
     1
 62
     5
420
      255
176
     1
290
     0
176
     1
 90
       50
176
     1
 90
       50
176
     1
 90
       50
176
     1
290
     0
176
     1
 90
       50
176
     1
 62
   256
176
     0
 40
1.0
176
     0
 90
        2
176
     1
  1
strokes_ogs.tif
176
     1
290
     0
176
     1
 40
1.0
176
     1
 40
1.0
176
     1
  0
VISUALSTYLE
  5
34
102
{ACAD_REACTORS
330
29
102
}
330
29
100
AcDbVisualStyle
  2
Dim
 70
    11
177
     3
291
     1
 70
    58
 90
        2
176
     1
 90
        2
176
     1
 90
        0
176
     1
 90
        0
176
     1
 40
0.6
176
     1
 40
30.0
176
     1
 62
     7
420
 16777215
176
     1
 90
        1
176
     1
 90
        4
176
     1
 62
     7
176
     1
 62
   257
176
     1
 90
        1
176
     1
 90
        1
176
     1
 40
1.0
176
     1
 90
        8
176
     1
 62
     7
176
     1
 40
1.0
176
     1
 90
        1
176
     1
 90
        6
176
     1
 90
        2
176
     1
 62
     7
176
     1
 90
        5
176
     1
 90
        0
176
     1
 90
        0
176
     1
290
     0
176
     1
 90
        1
176
     1
 40
-50.0
176
     1
 90
        0
176
     1
290
     0
176
     1
290
     1
176
     1
290
     1
176
     1
290
     0
176
     1
290
     0
176
     1
290
     0
176
     1
290
     0
176
     1
290
     0
176
     1
290
     0
176
     1
 90
       50
176
     1
 40
0.0
176
     1
 40
1.0
176
     1
 90
        0
176
     1
 62
    18
420
        0
176
     1
 90
       50
176
     1
 90
        3
176
     1
 62
     5
420
      255
176
     1
290
     0
176
     1
 90
       50
176
     1
 90
       50
176
     1
 90
       50
176
     1
290
     0
176
     1
 90
       50
176
     1
 62
   256
176
     0
 40
1.0
176
     0
 90
        2
176
     1
  1
strokes_ogs.tif
176
     1
290
     0
176
     1
 40
1.0
176
     1
 40
1.0
176
     1
  0
VISUALSTYLE
  5
41
102
{ACAD_REACTORS
330
29
102
}
330
29
100
AcDbVisualStyle
  2
EdgeColorOff
 70
    22
177
     3
291
     1
 70
    58
 90
        2
176
     0
 90
        2
176
     0
 90
        0
176
     0
 90
        0
176
     0
 40
0.6
176
     0
 40
30.0
176
     0
 62
     7
420
 16777215
176
     0
 90
        1
176
     0
 90
        4
176
     0
 62
     7
176
     0
 62
   257
176
     0
 90
        1
176
     0
 90
        1
176
     0
 40
1.0
176
     0
 90
        8
176
     2
 62
     7
176
     0
 40
1.0
176
     0
 90
        1
176
     0
 90
        6
176
     0
 90
        2
176
     0
 62
     7
176
     0
 90
        5
176
     0
 90
        0
176
     0
 90
        0
176
     0
290
     0
176
     0
 90
        1
176
     0
 40
0.0
176
     0
 90
        0
176
     0
290
     0
176
     0
290
     1
176
     0
290
     1
176
     0
290
     0
176
     0
290
     0
176
     0
290
     0
176
     0
290
     0
176
     0
290
     0
176
     0
290
     0
176
     0
 90
       50
176
     0
 40
0.0
176
     0
 40
1.0
176
     0
 90
        0
176
     0
 62
    18
420
        0
176
     0
 90
       50
176
     0
 90
        3
176
     0
 62
     5
420
      255
176
     0
290
     0
176
     0
 90
       50
176
     0
 90
       50
176
     0
 90
       50
176
     0
290
     0
176
     0
 90
       50
176
     0
 62
   256
176
     0
 40
1.0
176
     0
 90
        2
176
     0
  1
strokes_ogs.tif
176
     0
290
     0
176
     0
 40
1.0
176
     0
 40
1.0
176
     0
  0
VISUALSTYLE
  5
38
102
{ACAD_REACTORS
330
29
102
}
330
29
100
AcDbVisualStyle
  2
Facepattern
 70
    15
177
     3
291
     1
 70
    58
 90
        2
176
     1
 90
        2
176
     1
 90
        0
176
     1
 90
        0
176
     1
 40
0.6
176
     1
 40
30.0
176
     1
 62
     7
420
 16777215
176
     1
 90
        1
176
     1
 90
        4
176
     1
 62
     7
176
     1
 62
   257
176
     1
 90
        1
176
     1
 90
        1
176
     1
 40
1.0
176
     1
 90
        8
176
     1
 62
     7
176
     1
 40
1.0
176
     1
 90
        1
176
     1
 90
        6
176
     1
 90
        2
176
     1
 62
     7
176
     1
 90
        5
176
     1
 90
        0
176
     1
 90
        0
176
     1
290
     0
176
     1
 90
        1
176
     1
 40
0.0
176
     1
 90
        0
176
     1
290
     0
176
     1
290
     1
176
     1
290
     1
176
     1
290
     0
176
     1
290
     0
176
     1
290
     0
176
     1
290
     0
176
     1
290
     0
176
     1
290
     0
176
     1
 90
       50
176
     1
 40
0.0
176
     1
 40
1.0
176
     1
 90
        0
176
     1
 62
    18
420
        0
176
     1
 90
       50
176
     1
 90
        3
176
     1
 62
     5
420
      255
176
     1
290
     0
176
     1
 90
       50
176
     1
 90
       50
176
     1
 90
       50
176
     1
290
     0
176
     1
 90
       50
176
     1
 62
   256
176
     0
 40
1.0
176
     0
 90
        2
176
     1
  1
strokes_ogs.tif
176
     1
290
     0
176
     1
 40
1.0
176
     1
 40
1.0
176
     1
  0
VISUALSTYLE
  5
2A
102
{ACAD_REACTORS
330
29
102
}
330
29
100
AcDbVisualStyle
  2
Flat
 70
     0
177
     3
291
     1
 70
    58
 90
        2
176
     1
 90
        1
176
     1
 90
        1
176
     1
 90
        2
176
     1
 40
0.6
176
     1
 40
30.0
176
     1
 62
     7
420
 16777215
176
     1
 90
        0
176
     1
 90
        0
176
     1
 62
     7
176
     1
 62
   257
176
     1
 90
        1
176
     1
 90
        1
176
     1
 40
1.0
176
     1
 90
        8
176
     1
 62
     7
176
     1
 40
1.0
176
     1
 90
        1
176
     1
 90
        6
176
     1
 90
        2
176
     1
 62
     7
176
     1
 90
        5
176
     1
 90
        0
176
     1
 90
        0
176
     1
290
     0
176
     1
 90
       13
176
     1
 40
0.0
176
     1
 90
        0
176
     1
290
     0
176
     1
290
     1
176
     1
290
     1
176
     1
290
     0
176
     1
290
     0
176
     1
290
     0
176
     1
290
     0
176
     1
290
     0
176
     1
290
     0
176
     1
 90
       50
176
     1
 40
0.0
176
     1
 40
1.0
176
     1
 90
        0
176
     1
 62
    18
420
        0
176
     1
 90
       50
176
     1
 90
        3
176
     1
 62
     5
420
      255
176
     1
290
     0
176
     1
 90
       50
176
     1
 90
       50
176
     1
 90
       50
176
     1
290
     0
176
     1
 90
       50
176
     1
 62
   256
176
     0
 40
1.0
176
     0
 90
        2
176
     1
  1
strokes_ogs.tif
176
     1
290
     0
176
     1
 40
1.0
176
     1
 40
1.0
176
     1
  0
VISUALSTYLE
  5
2B
102
{ACAD_REACTORS
330
29
102
}
330
29
100
AcDbVisualStyle
  2
FlatWithEdges
 70
     1
177
     3
291
     1
 70
    58
 90
        2
176
     1
 90
        1
176
     1
 90
        1
176
     1
 90
        2
176
     1
 40
0.6
176
     1
 40
30.0
176
     1
 62
     7
420
 16777215
176
     1
 90
        1
176
     1
 90
        0
176
     1
 62
     7
176
     1
 62
   257
176
     1
 90
        1
176
     1
 90
        1
176
     1
 40
1.0
176
     1
 90
        0
176
     1
 62
   257
176
     1
 40
1.0
176
     1
 90
        1
176
     1
 90
        6
176
     1
 90
        2
176
     1
 62
     7
176
     1
 90
        5
176
     1
 90
        0
176
     1
 90
        0
176
     1
290
     0
176
     1
 90
       13
176
     1
 40
0.0
176
     1
 90
        0
176
     1
290
     0
176
     1
290
     1
176
     1
290
     1
176
     1
290
     0
176
     1
290
     0
176
     1
290
     0
176
     1
290
     0
176
     1
290
     0
176
     1
290
     0
176
     1
 90
       50
176
     1
 40
0.0
176
     1
 40
1.0
176
     1
 90
        0
176
     1
 62
    18
420
        0
176
     1
 90
       50
176
     1
 90
        3
176
     1
 62
     5
420
      255
176
     1
290
     0
176
     1
 90
       50
176
     1
 90
       50
176
     1
 90
       50
176
     1
290
     0
176
     1
 90
       50
176
     1
 62
   256
176
     0
 40
1.0
176
     0
 90
        2
176
     1
  1
strokes_ogs.tif
176
     1
290
     0
176
     1
 40
1.0
176
     1
 40
1.0
176
     1
  0
VISUALSTYLE
  5
2C
102
{ACAD_REACTORS
330
29
102
}
330
29
100
AcDbVisualStyle
  2
Gouraud
 70
     2
177
     3
291
     1
 70
    58
 90
        2
176
     1
 90
        2
176
     1
 90
        1
176
     1
 90
        2
176
     1
 40
0.6
176
     1
 40
30.0
176
     1
 62
     7
420
 16777215
176
     1
 90
        0
176
     1
 90
        0
176
     1
 62
     7
176
     1
 62
   257
176
     1
 90
        1
176
     1
 90
        1
176
     1
 40
1.0
176
     1
 90
        0
176
     1
 62
     7
176
     1
 40
1.0
176
     1
 90
        1
176
     1
 90
        6
176
     1
 90
        2
176
     1
 62
     7
176
     1
 90
        5
176
     1
 90
        0
176
     1
 90
        0
176
     1
290
     0
176
     1
 90
       13
176
     1
 40
0.0
176
     1
 90
        0
176
     1
290
     0
176
     1
290
     1
176
     1
290
     1
176
     1
290
     0
176
     1
290
     0
176
     1
290
     0
176
     1
290
     0
176
     1
290
     0
176
     1
290
     0
176
     1
 90
       50
176
     1
 40
0.0
176
     1
 40
1.0
176
     1
 90
        0
176
     1
 62
    18
420
        0
176
     1
 90
       50
176
     1
 90
        3
176
     1
 62
     5
420
      255
176
     1
290
     0
176
     1
 90
       50
176
     1
 90
       50
176
     1
 90
       50
176
     1
290
     0
176
     1
 90
       50
176
     1
 62
   256
176
     0
 40
1.0
176
     0
 90
        2
176
     1
  1
strokes_ogs.tif
176
     1
290
     0
176
     1
 40
1.0
176
     1
 40
1.0
176
     1
  0
VISUALSTYLE
  5
2D
102
{ACAD_REACTORS
330
29
102
}
330
29
100
AcDbVisualStyle
  2
GouraudWithEdges
 70
     3
177
     3
291
     1
 70
    58
 90
        2
176
     1
 90
        2
176
     1
 90
        1
176
     1
 90
        2
176
     1
 40
0.6
176
     1
 40
30.0
176
     1
 62
     7
420
 16777215
176
     1
 90
        1
176
     1
 90
        0
176
     1
 62
     7
176
     1
 62
   257
176
     1
 90
        1
176
     1
 90
        1
176
     1
 40
1.0
176
     1
 90
        0
176
     1
 62
   257
176
     1
 40
1.0
176
     1
 90
        1
176
     1
 90
        6
176
     1
 90
        2
176
     1
 62
     7
176
     1
 90
        5
176
     1
 90
        0
176
     1
 90
        0
176
     1
290
     0
176
     1
 90
       13
176
     1
 40
0.0
176
     1
 90
        0
176
     1
290
     0
176
     1
290
     1
176
     1
290
     1
176
     1
290
     0
176
     1
290
     0
176
     1
290
     0
176
     1
290
     0
176
     1
290
     0
176
     1
290
     0
176
     1
 90
       50
176
     1
 40
0.0
176
     1
 40
1.0
176
     1
 90
        0
176
     1
 62
    18
420
        0
176
     1
 90
       50
176
     1
 90
        3
176
     1
 62
     5
420
      255
176
     1
290
     0
176
     1
 90
       50
176
     1
 90
       50
176
     1
 90
       50
176
     1
290
     0
176
     1
 90
       50
176
     1
 62
   256
176
     0
 40
1.0
176
     0
 90
        2
176
     1
  1
strokes_ogs.tif
176
     1
290
     0
176
     1
 40
1.0
176
     1
 40
1.0
176
     1
  0
VISUALSTYLE
  5
31
102
{ACAD_REACTORS
330
29
102
}
330
29
100
AcDbVisualStyle
  2
Hidden
 70
     6
177
     3
291
     0
 70
    58
 90
        1
176
     1
 90
        2
176
     1
 90
        2
176
     1
 90
        0
176
     1
 40
0.6
176
     1
 40
30.0
176
     1
 62
     7
420
 16777215
176
     1
 90
        2
176
     1
 90
        2
176
     1
 62
     7
176
     1
 62
   257
176
     1
 90
        2
176
     1
 90
        1
176
     1
 40
40.0
176
     1
 90
        0
176
     1
 62
   257
176
     1
 40
1.0
176
     1
 90
        1
176
     1
 90
        6
176
     1
 90
        2
176
     1
 62
     7
176
     1
 90
        3
176
     1
 90
        0
176
     1
 90
        0
176
     1
290
     0
176
     1
 90
        1
176
     1
 40
0.0
176
     1
 90
        0
176
     1
290
     0
176
     1
290
     1
176
     1
290
     1
176
     1
290
     0
176
     1
290
     0
176
     1
290
     0
176
     1
290
     0
176
     1
290
     0
176
     1
290
     0
176
     1
 90
       50
176
     1
 40
0.0
176
     1
 40
1.0
176
     1
 90
        0
176
     1
 62
    18
420
        0
176
     1
 90
       50
176
     1
 90
        3
176
     1
 62
     5
420
      255
176
     1
290
     0
176
     1
 90
       50
176
     1
 90
       50
176
     1
 90
       50
176
     1
290
     0
176
     1
 90
       50
176
     1
 62
   256
176
     0
 40
1.0
176
     0
 90
        2
176
     1
  1
strokes_ogs.tif
176
     1
290
     0
176
     1
 40
1.0
176
     1
 40
1.0
176
     1
  0
VISUALSTYLE
  5
3F
102
{ACAD_REACTORS
330
29
102
}
330
29
100
AcDbVisualStyle
  2
JitterOff
 70
    20
177
     3
291
     1
 70
    58
 90
        2
176
     0
 90
        2
176
     0
 90
        0
176
     0
 90
        0
176
     0
 40
0.6
176
     0
 40
30.0
176
     0
 62
     7
420
 16777215
176
     0
 90
        1
176
     0
 90
        4
176
     0
 62
     7
176
     0
 62
   257
176
     0
 90
        1
176
     0
 90
        1
176
     0
 40
1.0
176
     0
 90
       10
176
     2
 62
     7
176
     0
 40
1.0
176
     0
 90
        1
176
     0
 90
        6
176
     0
 90
        2
176
     0
 62
     7
176
     0
 90
        5
176
     0
 90
        0
176
     0
 90
        0
176
     0
290
     0
176
     0
 90
        1
176
     0
 40
0.0
176
     0
 90
        0
176
     0
290
     0
176
     0
290
     1
176
     0
290
     1
176
     0
290
     0
176
     0
290
     0
176
     0
290
     0
176
     0
290
     0
176
     0
290
     0
176
     0
290
     0
176
     0
 90
       50
176
     0
 40
0.0
176
     0
 40
1.0
176
     0
 90
        0
176
     0
 62
    18
420
        0
176
     0
 90
       50
176
     0
 90
        3
176
     0
 62
     5
420
      255
176
     0
290
     0
176
     0
 90
       50
176
     0
 90
       50
176
     0
 90
       50
176
     0
290
     0
176
     0
 90
       50
176
     0
 62
   256
176
     0
 40
1.0
176
     0
 90
        2
176
     0
  1
strokes_ogs.tif
176
     0
290
     0
176
     0
 40
1.0
176
     0
 40
1.0
176
     0
  0
VISUALSTYLE
  5
37
102
{ACAD_REACTORS
330
29
102
}
330
29
100
AcDbVisualStyle
  2
Linepattern
 70
    14
177
     3
291
     1
 70
    58
 90
        2
176
     1
 90
        2
176
     1
 90
        0
176
     1
 90
        0
176
     1
 40
0.6
176
     1
 40
30.0
176
     1
 62
     7
420
 16777215
176
     1
 90
        1
176
     1
 90
        4
176
     1
 62
     7
176
     1
 62
   257
176
     1
 90
        7
176
     1
 90
        7
176
     1
 40
1.0
176
     1
 90
        8
176
     1
 62
     7
176
     1
 40
1.0
176
     1
 90
        1
176
     1
 90
        6
176
     1
 90
        2
176
     1
 62
     7
176
     1
 90
        5
176
     1
 90
        0
176
     1
 90
        0
176
     1
290
     0
176
     1
 90
        1
176
     1
 40
0.0
176
     1
 90
        0
176
     1
290
     0
176
     1
290
     1
176
     1
290
     1
176
     1
290
     0
176
     1
290
     0
176
     1
290
     0
176
     1
290
     0
176
     1
290
     0
176
     1
290
     0
176
     1
 90
       50
176
     1
 40
0.0
176
     1
 40
1.0
176
     1
 90
        0
176
     1
 62
    18
420
        0
176
     1
 90
       50
176
     1
 90
        3
176
     1
 62
     5
420
      255
176
     1
290
     0
176
     1
 90
       50
176
     1
 90
       50
176
     1
 90
       50
176
     1
290
     0
176
     1
 90
       50
176
     1
 62
   256
176
     0
 40
1.0
176
     0
 90
        2
176
     1
  1
strokes_ogs.tif
176
     1
290
     0
176
     1
 40
1.0
176
     1
 40
1.0
176
     1
  0
VISUALSTYLE
  5
40
102
{ACAD_REACTORS
330
29
102
}
330
29
100
AcDbVisualStyle
  2
OverhangOff
 70
    21
177
     3
291
     1
 70
    58
 90
        2
176
     0
 90
        2
176
     0
 90
        0
176
     0
 90
        0
176
     0
 40
0.6
176
     0
 40
30.0
176
     0
 62
     7
420
 16777215
176
     0
 90
        1
176
     0
 90
        4
176
     0
 62
     7
176
     0
 62
   257
176
     0
 90
        1
176
     0
 90
        1
176
     0
 40
1.0
176
     0
 90
        9
176
     2
 62
     7
176
     0
 40
1.0
176
     0
 90
        1
176
     0
 90
        6
176
     0
 90
        2
176
     0
 62
     7
176
     0
 90
        5
176
     0
 90
        0
176
     0
 90
        0
176
     0
290
     0
176
     0
 90
        1
176
     0
 40
0.0
176
     0
 90
        0
176
     0
290
     0
176
     0
290
     1
176
     0
290
     1
176
     0
290
     0
176
     0
290
     0
176
     0
290
     0
176
     0
290
     0
176
     0
290
     0
176
     0
290
     0
176
     0
 90
       50
176
     0
 40
0.0
176
     0
 40
1.0
176
     0
 90
        0
176
     0
 62
    18
420
        0
176
     0
 90
       50
176
     0
 90
        3
176
     0
 62
     5
420
      255
176
     0
290
     0
176
     0
 90
       50
176
     0
 90
       50
176
     0
 90
       50
176
     0
290
     0
176
     0
 90
       50
176
     0
 62
   256
176
     0
 40
1.0
176
     0
 90
        2
176
     0
  1
strokes_ogs.tif
176
     0
290
     0
176
     0
 40
1.0
176
     0
 40
1.0
176
     0
  0
VISUALSTYLE
  5
33
102
{ACAD_REACTORS
330
29
102
}
330
29
100
AcDbVisualStyle
  2
Realistic
 70
     8
177
     3
291
     0
 70
    58
 90
        2
176
     1
 90
        3
176
     1
 90
        0
176
     1
 90
        2
176
     1
 40
0.6
176
     1
 40
30.0
176
     1
 62
     7
420
 16777215
176
     1
 90
        0
176
     1
 90
        0
176
     1
 62
     7
176
     1
 62
   257
176
     1
 90
        1
176
     1
 90
        1
176
     1
 40
1.0
176
     1
 90
        8
176
     1
 62
   257
176
     1
 40
1.0
176
     1
 90
        1
176
     1
 90
        6
176
     1
 90
        2
176
     1
 62
     7
176
     1
 90
        3
176
     1
 90
        0
176
     1
 90
        0
176
     1
290
     0
176
     1
 90
       13
176
     1
 40
0.0
176
     1
 90
        0
176
     1
290
     0
176
     1
290
     1
176
     1
290
     1
176
     1
290
     0
176
     1
290
     0
176
     1
290
     0
176
     1
290
     0
176
     1
290
     0
176
     1
290
     0
176
     1
 90
       50
176
     1
 40
0.0
176
     1
 40
1.0
176
     1
 90
        0
176
     1
 62
    18
420
        0
176
     1
 90
       50
176
     1
 90
        3
176
     1
 62
     5
420
      255
176
     1
290
     0
176
     1
 90
       50
176
     1
 90
       50
176
     1
 90
       50
176
     1
290
     0
176
     1
 90
       50
176
     1
 62
   256
176
     0
 40
1.0
176
     0
 90
        2
176
     1
  1
strokes_ogs.tif
176
     1
290
     0
176
     1
 40
1.0
176
     1
 40
1.0
176
     1
  0
VISUALSTYLE
  5
3E
102
{ACAD_REACTORS
330
29
102
}
330
29
100
AcDbVisualStyle
  2
Shaded
 70
    27
177
     3
291
     0
 70
    58
 90
        2
176
     1
 90
        2
176
     1
 90
        1
176
     1
 90
        2
176
     1
 40
0.6
176
     1
 40
30.0
176
     1
 62
     7
420
 16777215
176
     1
 90
        0
176
     1
 90
        4
176
     1
 62
     7
176
     1
 62
   257
176
     1
 90
        1
176
     1
 90
        1
176
     1
 40
1.0
176
     1
 90
        8
176
     1
 62
   257
176
     1
 40
1.0
176
     1
 90
        1
176
     1
 90
        6
176
     1
 90
        2
176
     1
 62
     8
420
  7895160
176
     1
 90
        3
176
     1
 90
        0
176
     1
 90
        0
176
     1
290
     0
176
     1
 90
        5
176
     1
 40
0.0
176
     1
 90
        0
176
     1
290
     0
176
     1
290
     1
176
     1
290
     1
176
     1
290
     0
176
     1
290
     0
176
     1
290
     0
176
     1
290
     0
176
     1
290
     0
176
     1
290
     0
176
     1
 90
       50
176
     1
 40
0.0
176
     1
 40
1.0
176
     1
 90
        0
176
     1
 62
    18
420
        0
176
     1
 90
       50
176
     1
 90
        3
176
     1
 62
     5
420
      255
176
     1
290
     0
176
     1
 90
       50
176
     1
 90
       50
176
     1
 90
       50
176
     1
290
     0
176
     1
 90
       50
176
     1
 62
   256
176
     0
 40
1.0
176
     0
 90
        2
176
     1
  1
strokes_ogs.tif
176
     1
290
     0
176
     1
 40
1.0
176
     1
 40
1.0
176
     1
  0
VISUALSTYLE
  5
3D
102
{ACAD_REACTORS
330
29
102
}
330
29
100
AcDbVisualStyle
  2
Shaded with edges
 70
    26
177
     3
291
     0
 70
    58
 90
        2
176
     1
 90
        2
176
     1
 90
        1
176
     1
 90
        2
176
     1
 40
0.6
176
     1
 40
30.0
176
     1
 62
     7
420
 16777215
176
     1
 90
        1
176
     1
 90
        2
176
     1
 62
     7
176
     1
 62
   257
176
     1
 90
        2
176
     1
 90
        1
176
     1
 40
1.0
176
     1
 90
        8
176
     1
 62
   257
176
     1
 40
1.0
176
     1
 90
        1
176
     1
 90
        6
176
     1
 90
        2
176
     1
 62
     7
176
     1
 90
        3
176
     1
 90
        0
176
     1
 90
        0
176
     1
290
     0
176
     1
 90
        5
176
     1
 40
0.0
176
     1
 90
        0
176
     1
290
     0
176
     1
290
     1
176
     1
290
     1
176
     1
290
     0
176
     1
290
     0
176
     1
290
     0
176
     1
290
     0
176
     1
290
     0
176
     1
290
     0
176
     1
 90
       50
176
     1
 40
0.0
176
     1
 40
1.0
176
     1
 90
        0
176
     1
 62
    18
420
        0
176
     1
 90
       50
176
     1
 90
        3
176
     1
 62
     5
420
      255
176
     1
290
     0
176
     1
 90
       50
176
     1
 90
       50
176
     1
 90
       50
176
     1
290
     0
176
     1
 90
       50
176
     1
 62
   256
176
     0
 40
1.0
176
     0
 90
        2
176
     1
  1
strokes_ogs.tif
176
     1
290
     0
176
     1
 40
1.0
176
     1
 40
1.0
176
     1
  0
VISUALSTYLE
  5
3A
102
{ACAD_REACTORS
330
29
102
}
330
29
100
AcDbVisualStyle
  2
Shades of Gray
 70
    23
177
     3
291
     0
 70
    58
 90
        2
176
     1
 90
        2
176
     1
 90
        3
176
     1
 90
        0
176
     1
 40
0.6
176
     1
 40
30.0
176
     1
 62
     7
420
 16777215
176
     1
 90
        2
176
     1
 90
        2
176
     1
 62
     7
176
     1
 62
     7
176
     1
 90
        1
176
     1
 90
        1
176
     1
 40
40.0
176
     1
 90
        8
176
     1
 62
     7
176
     1
 40
1.0
176
     1
 90
        1
176
     1
 90
        6
176
     1
 90
        2
176
     1
 62
     7
176
     1
 90
        3
176
     1
 90
        0
176
     1
 90
        0
176
     1
290
     0
176
     1
 90
        1
176
     1
 40
0.0
176
     1
 90
        0
176
     1
290
     0
176
     1
290
     1
176
     1
290
     1
176
     1
290
     0
176
     1
290
     0
176
     1
290
     0
176
     1
290
     0
176
     1
290
     0
176
     1
290
     0
176
     1
 90
       50
176
     1
 40
0.0
176
     1
 40
1.0
176
     1
 90
        0
176
     1
 62
    18
420
        0
176
     1
 90
       50
176
     1
 90
        3
176
     1
 62
     5
420
      255
176
     1
290
     0
176
     1
 90
       50
176
     1
 90
       50
176
     1
 90
       50
176
     1
290
     0
176
     1
 90
       50
176
     1
 62
   256
176
     0
 40
1.0
176
     0
 90
        2
176
     1
  1
strokes_ogs.tif
176
     1
290
     0
176
     1
 40
1.0
176
     1
 40
1.0
176
     1
  0
VISUALSTYLE
  5
3B
102
{ACAD_REACTORS
330
29
102
}
330
29
100
AcDbVisualStyle
  2
Sketchy
 70
    24
177
     3
291
     0
 70
    58
 90
        1
176
     1
 90
        2
176
     1
 90
        2
176
     1
 90
        0
176
     1
 40
0.6
176
     1
 40
30.0
176
     1
 62
     7
420
 16777215
176
     1
 90
        2
176
     1
 90
        2
176
     1
 62
     7
176
     1
 62
     7
176
     1
 90
        1
176
     1
 90
        1
176
     1
 40
40.0
176
     1
 90
       11
176
     1
 62
     7
176
     1
 40
1.0
176
     1
 90
        1
176
     1
 90
        6
176
     1
 90
        2
176
     1
 62
     7
176
     1
 90
        6
176
     1
 90
        0
176
     1
 90
        0
176
     1
290
     0
176
     1
 90
        1
176
     1
 40
0.0
176
     1
 90
        0
176
     1
290
     0
176
     1
290
     1
176
     1
290
     1
176
     1
290
     0
176
     1
290
     0
176
     1
290
     0
176
     1
290
     0
176
     1
290
     0
176
     1
290
     0
176
     1
 90
       50
176
     1
 40
0.0
176
     1
 40
1.0
176
     1
 90
        0
176
     1
 62
    18
420
        0
176
     1
 90
       50
176
     1
 90
        3
176
     1
 62
     5
420
      255
176
     1
290
     0
176
     1
 90
       50
176
     1
 90
       50
176
     1
 90
       50
176
     1
290
     0
176
     1
 90
       50
176
     1
 62
   256
176
     0
 40
1.0
176
     0
 90
        2
176
     1
  1
strokes_ogs.tif
176
     1
290
     0
176
     1
 40
1.0
176
     1
 40
1.0
176
     1
  0
VISUALSTYLE
  5
36
102
{ACAD_REACTORS
330
29
102
}
330
29
100
AcDbVisualStyle
  2
Thicken
 70
    13
177
     3
291
     1
 70
    58
 90
        2
176
     1
 90
        2
176
     1
 90
        0
176
     1
 90
        0
176
     1
 40
0.6
176
     1
 40
30.0
176
     1
 62
     7
420
 16777215
176
     1
 90
        1
176
     1
 90
        4
176
     1
 62
     7
176
     1
 62
   257
176
     1
 90
        1
176
     1
 90
        1
176
     1
 40
1.0
176
     1
 90
       12
176
     1
 62
     7
176
     1
 40
1.0
176
     1
 90
        1
176
     1
 90
        6
176
     1
 90
        2
176
     1
 62
     7
176
     1
 90
        5
176
     1
 90
        0
176
     1
 90
        0
176
     1
290
     0
176
     1
 90
        1
176
     1
 40
0.0
176
     1
 90
        0
176
     1
290
     0
176
     1
290
     1
176
     1
290
     1
176
     1
290
     0
176
     1
290
     0
176
     1
290
     0
176
     1
290
     0
176
     1
290
     0
176
     1
290
     0
176
     1
 90
       50
176
     1
 40
0.0
176
     1
 40
1.0
176
     1
 90
        0
176
     1
 62
    18
420
        0
176
     1
 90
       50
176
     1
 90
        3
176
     1
 62
     5
420
      255
176
     1
290
     0
176
     1
 90
       50
176
     1
 90
       50
176
     1
 90
       50
176
     1
290
     0
176
     1
 90
       50
176
     1
 62
   256
176
     0
 40
1.0
176
     0
 90
        2
176
     1
  1
strokes_ogs.tif
176
     1
290
     0
176
     1
 40
1.0
176
     1
 40
1.0
176
     1
  0
VISUALSTYLE
  5
30
102
{ACAD_REACTORS
330
29
102
}
330
29
100
AcDbVisualStyle
  2
Wireframe
 70
     5
177
     3
291
     0
 70
    58
 90
        0
176
     1
 90
        2
176
     1
 90
        0
176
     1
 90
        0
176
     1
 40
0.6
176
     1
 40
30.0
176
     1
 62
     7
420
 16777215
176
     1
 90
        1
176
     1
 90
        4
176
     1
 62
     7
176
     1
 62
   257
176
     1
 90
        1
176
     1
 90
        1
176
     1
 40
1.0
176
     1
 90
        0
176
     1
 62
   257
176
     1
 40
1.0
176
     1
 90
        1
176
     1
 90
        6
176
     1
 90
        2
176
     1
 62
     7
176
     1
 90
        3
176
     1
 90
        0
176
     1
 90
        0
176
     1
290
     0
176
     1
 90
        1
176
     1
 40
0.0
176
     1
 90
        0
176
     1
290
     0
176
     1
290
     1
176
     1
290
     1
176
     1
290
     0
176
     1
290
     0
176
     1
290
     0
176
     1
290
     0
176
     1
290
     0
176
     1
290
     0
176
     1
 90
       50
176
     1
 40
0.0
176
     1
 40
1.0
176
     1
 90
        0
176
     1
 62
    18
420
        0
176
     1
 90
       50
176
     1
 90
        3
176
     1
 62
     5
420
      255
176
     1
290
     0
176
     1
 90
       50
176
     1
 90
       50
176
     1
 90
       50
176
     1
290
     0
176
     1
 90
       50
176
     1
 62
   256
176
     0
 40
1.0
176
     0
 90
        2
176
     1
  1
strokes_ogs.tif
176
     1
290
     0
176
     1
 40
1.0
176
     1
 40
1.0
176
     1
  0
VISUALSTYLE
  5
3C
102
{ACAD_REACTORS
330
29
102
}
330
29
100
AcDbVisualStyle
  2
X-Ray
 70
    25
177
     3
291
     0
 70
    58
 90
        2
176
     1
 90
        2
176
     1
 90
        1
176
     1
 90
        1
176
     1
 40
0.5
176
     1
 40
30.0
176
     1
 62
     7
420
 16777215
176
     1
 90
        1
176
     1
 90
        0
176
     1
 62
     7
176
     1
 62
   257
176
     1
 90
        1
176
     1
 90
        1
176
     1
 40
1.0
176
     1
 90
        8
176
     1
 62
     7
176
     1
 40
1.0
176
     1
 90
        1
176
     1
 90
        6
176
     1
 90
        2
176
     1
 62
     7
176
     1
 90
        3
176
     1
 90
        0
176
     1
 90
        0
176
     1
290
     0
176
     1
 90
       13
176
     1
 40
0.0
176
     1
 90
        0
176
     1
290
     0
176
     1
290
     1
176
     1
290
     1
176
     1
290
     0
176
     1
290
     0
176
     1
290
     0
176
     1
290
     0
176
     1
290
     0
176
     1
290
     0
176
     1
 90
       50
176
     1
 40
0.0
176
     1
 40
1.0
176
     1
 90
        0
176
     1
 62
    18
420
        0
176
     1
 90
       50
176
     1
 90
        3
176
     1
 62
     5
420
      255
176
     1
290
     0
176
     1
 90
       50
176
     1
 90
       50
176
     1
 90
       50
176
     1
290
     0
176
     1
 90
       50
176
     1
 62
   256
176
     0
 40
1.0
176
     0
 90
        2
176
     1
  1
strokes_ogs.tif
176
     1
290
     0
176
     1
 40
1.0
176
     1
 40
1.0
176
     1
  0
DICTIONARYVAR
  5
97
102
{ACAD_REACTORS
330
92
102
}
330
92
100
DictionaryVariables
280
     0
  1
1:1
  0
DICTIONARYVAR
  5
94
102
{ACAD_REACTORS
330
92
102
}
330
92
100
DictionaryVariables
280
     0
  1
STANDARD
  0
DICTIONARYVAR
  5
93
102
{ACAD_REACTORS
330
92
102
}
330
92
100
DictionaryVariables
280
     0
  1
STANDARD
  0
DICTIONARYVAR
  5
95
102
{ACAD_REACTORS
330
92
102
}
330
92
100
DictionaryVariables
280
     0
  1
Imperial24
  0
DICTIONARYVAR
  5
96
102
{ACAD_REACTORS
330
92
102
}
330
92
100
DictionaryVariables
280
     0
  1
Imperial24
  0
DICTIONARY
  5
1A
330
19
100
AcDbDictionary
280
     1
281
     1
  3
BUMPTILE
360
1C
  3
DIFFUSETILE
360
1B
  3
OPACITYTILE
360
1F
  3
REFLECTIONTILE
360
1E
  3
REFRACTIONTILE
360
20
  3
SPECULARTILE
360
1D
  0
DICTIONARY
  5
12
330
11
100
AcDbDictionary
280
     1
281
     1
  3
BUMPTILE
360
14
  3
DIFFUSETILE
360
13
  3
OPACITYTILE
360
17
  3
REFLECTIONTILE
360
16
  3
REFRACTIONTILE
360
18
  3
SPECULARTILE
360
15
  0
DICTIONARY
  5
22
330
21
100
AcDbDictionary
280
     1
281
     1
  3
BUMPTILE
360
24
  3
DIFFUSETILE
360
23
  3
OPACITYTILE
360
27
  3
REFLECTIONTILE
360
26
  3
REFRACTIONTILE
360
28
  3
SPECULARTILE
360
25
  0
DICTIONARY
  5
98
330
65
100
AcDbDictionary
280
     1
281
     1
  3
ACAD_ROUNDTRIP_2008_TABLESTYLE_CELLSTYLEMAP
360
99
  0
XRECORD
  5
1C
102
{ACAD_REACTORS
330
1A
102
}
330
1A
100
AcDbXrecord
280
     1
270
     1
271
     1
  0
XRECORD
  5
1B
102
{ACAD_REACTORS
330
1A
102
}
330
1A
100
AcDbXrecord
280
     1
270
     1
271
     1
  0
XRECORD
  5
1F
102
{ACAD_REACTORS
330
1A
102
}
330
1A
100
AcDbXrecord
280
     1
270
     1
271
     1
  0
XRECORD
  5
1E
102
{ACAD_REACTORS
330
1A
102
}
330
1A
100
AcDbXrecord
280
     1
270
     1
271
     1
  0
XRECORD
  5
20
102
{ACAD_REACTORS
330
1A
102
}
330
1A
100
AcDbXrecord
280
     1
270
     1
271
     1
  0
XRECORD
  5
1D
102
{ACAD_REACTORS
330
1A
102
}
330
1A
100
AcDbXrecord
280
     1
270
     1
271
     1
  0
XRECORD
  5
14
102
{ACAD_REACTORS
330
12
102
}
330
12
100
AcDbXrecord
280
     1
270
     1
271
     1
  0
XRECORD
  5
13
102
{ACAD_REACTORS
330
12
102
}
330
12
100
AcDbXrecord
280
     1
270
     1
271
     1
  0
XRECORD
  5
17
102
{ACAD_REACTORS
330
12
102
}
330
12
100
AcDbXrecord
280
     1
270
     1
271
     1
  0
XRECORD
  5
16
102
{ACAD_REACTORS
330
12
102
}
330
12
100
AcDbXrecord
280
     1
270
     1
271
     1
  0
XRECORD
  5
18
102
{ACAD_REACTORS
330
12
102
}
330
12
100
AcDbXrecord
280
     1
270
     1
271
     1
  0
XRECORD
  5
15
102
{ACAD_REACTORS
330
12
102
}
330
12
100
AcDbXrecord
280
     1
270
     1
271
     1
  0
XRECORD
  5
24
102
{ACAD_REACTORS
330
22
102
}
330
22
100
AcDbXrecord
280
     1
270
     1
271
     1
  0
XRECORD
  5
23
102
{ACAD_REACTORS
330
22
102
}
330
22
100
AcDbXrecord
280
     1
270
     1
271
     1
  0
XRECORD
  5
27
102
{ACAD_REACTORS
330
22
102
}
330
22
100
AcDbXrecord
280
     1
270
     1
271
     1
  0
XRECORD
  5
26
102
{ACAD_REACTORS
330
22
102
}
330
22
100
AcDbXrecord
280
     1
270
     1
271
     1
  0
XRECORD
  5
28
102
{ACAD_REACTORS
330
22
102
}
330
22
100
AcDbXrecord
280
     1
270
     1
271
     1
  0
XRECORD
  5
25
102
{ACAD_REACTORS
330
22
102
}
330
22
100
AcDbXrecord
280
     1
270
     1
271
     1
  0
CELLSTYLEMAP
  5
99
102
{ACAD_REACTORS
330
98
102
}
330
98
100
AcDbCellStyleMap
 90
        3
300
CELLSTYLE
  1
TABLEFORMAT_BEGIN
 90
        5
170
     1
 91
        0
 92
    32768
 62
   257
 93
        1
300
CONTENTFORMAT
  1
CONTENTFORMAT_BEGIN
 90
        0
 91
        0
 92
      512
 93
        0
300

 40
0.0
140
1.0
 94
        5
 62
     0
340
55
144
0.25
309
CONTENTFORMAT_END
171
     0
 94
        0
309
TABLEFORMAT_END
  1
CELLSTYLE_BEGIN
 90
        1
 91
        1
300
_TITLE
309
CELLSTYLE_END
300
CELLSTYLE
  1
TABLEFORMAT_BEGIN
 90
        5
170
     1
 91
        0
 92
        0
 62
   257
 93
        1
300
CONTENTFORMAT
  1
CONTENTFORMAT_BEGIN
 90
        0
 91
        0
 92
      512
 93
        0
300

 40
0.0
140
1.0
 94
        5
 62
     0
340
55
144
0.18
309
CONTENTFORMAT_END
171
     0
 94
        0
309
TABLEFORMAT_END
  1
CELLSTYLE_BEGIN
 90
        2
 91
        1
300
_HEADER
309
CELLSTYLE_END
300
CELLSTYLE
  1
TABLEFORMAT_BEGIN
 90
        5
170
     1
 91
        0
 92
        0
 62
   257
 93
        1
300
CONTENTFORMAT
  1
CONTENTFORMAT_BEGIN
 90
        0
 91
        0
 92
      512
 93
        0
300

 40
0.0
140
1.0
 94
        2
 62
     0
340
55
144
0.18
309
CONTENTFORMAT_END
171
     0
 94
        0
309
TABLEFORMAT_END
  1
CELLSTYLE_BEGIN
 90
        3
 91
        2
300
_DATA
309
CELLSTYLE_END
  0
ENDSEC
  0
EOF
