<?xml version="1.0" encoding="UTF-8"?><svg id="Layer_2" xmlns="http://www.w3.org/2000/svg" viewBox="0 0 191.75 267.89"><defs><style>.cls-1{fill:#ea1c24;fill-rule:evenodd;opacity:.47;}</style></defs><g id="Raven"><g id="New_Legs"><path class="cls-1" d="M190.24,119.57c1.23-1.67,1.75-3.77,1.42-5.83l-12.69-64.33c-.23-1.49-.04-3.02,.59-4.38,12.69-27.56-1.71-47.35-32.71-44.82-.57,.05-1.83,.31-3.26,.75-3.42,1.05-6.21,3.56-7.6,6.86l-6.32,14.97c1.07,7.27,4.84,13.78,10.33,18.67,.54,.48,14.21,20.11,14.26,20.48l8.72,50.03c.26,1.98-.26,3.98-1.43,5.6l-75.85,118.59c-1.19,1.62-2.95,2.73-4.93,3.08L6.43,252.43c-3.14,.56-5.63,2.97-6.27,6.1-1,4.85,2.73,9.39,7.69,9.36l151.66-1.11c4.98-.04,8.64-4.66,7.54-9.52l-.99-4.36c-.73-3.22-3.4-5.62-6.68-6.01-9.47-1.11-26.72-1.97-35.97-6.11-4.48-2.01-5.86-7.72-2.95-11.67l69.78-109.55Zm-36.54-83.84c-4.69-.19-8.35-4.14-8.16-8.83s4.14-8.35,8.83-8.16c4.69,.19,8.35,4.14,8.16,8.83s-4.14,8.35-8.83,8.16Z"/></g></g></svg>