<?xml version="1.0" encoding="UTF-8"?>
<svg id="Layer_2" data-name="Layer 2" xmlns="http://www.w3.org/2000/svg" viewBox="0 0 686.68 408.84">
  <defs>
    <style>
      .cls-1 {
        fill: #2e798e;
        fill-rule: evenodd;
      }
    </style>
  </defs>
  <g id="Husk">
    <path class="cls-1" d="M233.92,47.05c93.57,39.43,364.98,77.65,451.13,136.99,4.98,3.43-2.57,17.03-7.62,20.37-42.02,27.83-106.34,24.74-150.92,35.87-.36,.09-.72,.15-1.08,.19-36.35,3.83-60.03,39.33-70.85,71.2-.16,.46-.34,.91-.58,1.34-10.28,18.65-36.14,13.92-46.62,43.56-.21,.61-.5,1.19-.84,1.74-6.05,9.71-6.68,21.67-11.35,31.68-.49,1.05-1.18,2.01-2.05,2.8-21.21,19.2-33.04,22.33-54.14,2.99-.92-.84-2-1.48-3.19-1.86-64.39-20.21-141.73-31.25-203.48-58.08-.28-.12-.56-.22-.85-.31-53-15.88-88.52-66.54-111.01-114.35-.19-.39-.4-.77-.64-1.13C10.08,205.71,.28,190.62,.59,172.59c.01-.7-.13-1.39-.34-2.06C-4.93,153.53,70.64,27.91,77.98,9c.38-.99,.92-1.91,1.64-2.69,17.48-18.97,63.73,10.45,83.22,14.24,24.54,4.11,53.31,15.54,69.88,25.87,.39,.24,.77,.45,1.19,.62Z"/>
  </g>
</svg>