<?xml version="1.0" encoding="UTF-8"?><svg id="Layer_2" xmlns="http://www.w3.org/2000/svg" viewBox="0 0 604.92 276.15"><defs><style>.cls-1{fill:#662d91;fill-rule:evenodd;opacity:.6;}</style></defs><g id="Raven"><path id="Body" class="cls-1" d="M604.76,125.31c-.76-10.64,.1-14.58-6.74-24.55-47.51-23.93-109.32-43.36-160.92-61.78,0,0-27.87-4.6-61.55-10.22l-.94,5.28-13.95-2.49,.92-5.12c-26.15-4.38-53.89-9.06-73.92-12.53l-3.32,34.71-11.38-1.2-22.78,192.37-31.82-3.8L241.54,6.23c-.94-.15-46.34-6.16-61.75-6.23,3.92,.06-63.04,1.9-91.95,8.84-13.01,3.13-30.7,7.7-42.55,12.77,0,0-42.11,124.47-45.29,134.53,.23,9.28,28.94,41.74,44.32,59.41,9.17,10.93,38.85,36.96,74.86,41.33,10.26,1.25,29.4,4.28,39.85,5.89,37.46,5.77,63.59,9.58,100.96,12.66,5.28,.43,16.06,.83,21.31,.67,7.08-.21,18.16-.54,30.74-1.08l1.59-8.9,13.95,2.49-1.02,5.71c24-1.29,49.83-3.42,63-7,85.2-23.17,38.33,.43,88.47-.56,23.27-7.21,45.23-57.68,91.5-66.74,16.26-3.18,20.98-20.15,26.03-31.02,2.15-4.63,4.32-9.75,5.4-14.84,2.72-12.02,4.51-18.53,3.78-28.86ZM98.96,22.51c.78,0,1.42,.63,1.42,1.42s-.63,1.42-1.42,1.42-1.42-.63-1.42-1.42,.63-1.42,1.42-1.42Zm-12.48,59.06c.78,0,1.42,.63,1.42,1.42s-.63,1.42-1.42,1.42-1.42-.63-1.42-1.42,.63-1.42,1.42-1.42Zm-52.59,.69c0-.78,.63-1.42,1.42-1.42s1.42,.63,1.42,1.42-.63,1.42-1.42,1.42-1.42-.63-1.42-1.42Zm13.2,73.06l-12.24-3.6,20.79-70.71,12.24,3.6-20.79,70.71Zm10.48,17.45c-.78,0-1.42-.63-1.42-1.42s.63-1.42,1.42-1.42,1.42,.63,1.42,1.42-.63,1.42-1.42,1.42Zm30.88,62.34c-.78,0-1.42-.63-1.42-1.42s.63-1.42,1.42-1.42,1.42,.63,1.42,1.42-.63,1.42-1.42,1.42Zm-29.68-45.73l10.53-32.36,64.87,20.95-10.56,32.7-64.85-21.28Zm76.02,8.47c-.78,0-1.42-.63-1.42-1.42s.63-1.42,1.42-1.42,1.42,.63,1.42,1.42-.63,1.42-1.42,1.42Zm17.52-75.09l-64.89-21.3,10.26-32.12,65.18,20.72-10.55,32.7Zm11.48-13.18c-.78,0-1.42-.63-1.42-1.42s.63-1.42,1.42-1.42,1.42,.63,1.42,1.42-.63,1.42-1.42,1.42Zm4.08-31.8c-.78,0-1.42-.63-1.42-1.42s.63-1.42,1.42-1.42,1.42,.63,1.42,1.42-.63,1.42-1.42,1.42Zm93.13,148.28c-.78,0-1.42-.63-1.42-1.42s.63-1.42,1.42-1.42,1.42,.63,1.42,1.42-.63,1.42-1.42,1.42Zm18.13-141.01c-.78,0-1.42-.63-1.42-1.42s.63-1.42,1.42-1.42,1.42,.63,1.42,1.42-.63,1.42-1.42,1.42Zm66.32,178.05c-.78,0-1.42-.63-1.42-1.42s.63-1.42,1.42-1.42,1.42,.63,1.42,1.42-.63,1.42-1.42,1.42ZM434.07,60.25c.78,0,1.42,.63,1.42,1.42s-.63,1.42-1.42,1.42-1.42-.63-1.42-1.42,.63-1.42,1.42-1.42Zm-24.48,87.13c-.78,0-1.42-.63-1.42-1.42s.63-1.42,1.42-1.42,1.42,.63,1.42,1.42-.63,1.42-1.42,1.42Zm6-28c-.78,0-1.42-.63-1.42-1.42s.63-1.42,1.42-1.42,1.42,.63,1.42,1.42-.63,1.42-1.42,1.42Zm61.2,121.86c-4.7,0-8.5-3.81-8.5-8.5s3.81-8.5,8.5-8.5,8.5,3.81,8.5,8.5-3.81,8.5-8.5,8.5Zm-61.23-79.13l12.44-56.79,117.18,25.28-11.48,56.76-118.14-25.25Zm130.53,13.76c-.78,0-1.42-.63-1.42-1.42s.63-1.42,1.42-1.42,1.42,.63,1.42,1.42-.63,1.42-1.42,1.42Zm6-28c-.78,0-1.42-.63-1.42-1.42s.63-1.42,1.42-1.42,1.42,.63,1.42,1.42-.63,1.42-1.42,1.42Zm24.87-32.54c-.78,0-1.42-.63-1.42-1.42s.63-1.42,1.42-1.42,1.42,.63,1.42,1.42-.63,1.42-1.42,1.42Z"/></g></svg>