<?xml version="1.0" encoding="UTF-8"?><svg id="Layer_2" xmlns="http://www.w3.org/2000/svg" viewBox="0 0 127.56 127.56"><defs><style>.cls-1{fill:#2b398d;fill-rule:evenodd;}</style></defs><g id="Raven"><path class="cls-1" d="M18.68,18.68c-24.91,24.91-24.91,65.29,0,90.2,24.91,24.91,65.29,24.91,90.2,0,24.91-24.91,24.91-65.29,0-90.2s-65.29-24.91-90.2,0Zm17.45,89.79c-4.15,4.15-10.88,4.15-15.03,0-4.15-4.15-4.15-10.88,0-15.03s10.88-4.15,15.03,0c4.15,4.15,4.15,10.88,0,15.03Zm10-21.07c-1.66,1.66-4.35,1.66-6.01,0s-1.66-4.35,0-6.01,4.35-1.66,6.01,0,1.66,4.35,0,6.01ZM20.67,19.16c4.15-4.15,10.88-4.15,15.03,0s4.15,10.88,0,15.03-10.88,4.15-15.03,0c-4.15-4.15-4.15-10.88,0-15.03ZM106.42,108.78c-4.15,4.15-10.88,4.15-15.03,0-4.15-4.15-4.15-10.88,0-15.03s10.88-4.15,15.03,0c4.15,4.15,4.15,10.88,0,15.03Zm-19-21.36c-1.66,1.66-4.35,1.66-6.01,0s-1.66-4.35,0-6.01,4.35-1.66,6.01,0,1.66,4.35,0,6.01Zm-25.62-21.62c-1.11-1.11-1.11-2.9,0-4.01s2.9-1.11,4.01,0,1.11,2.9,0,4.01-2.9,1.11-4.01,0Zm-15.64-19.65c-1.66,1.66-4.35,1.66-6.01,0s-1.66-4.35,0-6.01,4.35-1.66,6.01,0,1.66,4.35,0,6.01Zm41.25-.02c-1.66,1.66-4.35,1.66-6.01,0s-1.66-4.35,0-6.01,4.35-1.66,6.01,0,1.66,4.35,0,6.01Zm19.05-11.95c-4.15,4.15-10.88,4.15-15.03,0s-4.15-10.88,0-15.03,10.88-4.15,15.03,0c4.15,4.15,4.15,10.88,0,15.03ZM2.98,65.8c-1.11-1.11-1.11-2.9,0-4.01s2.9-1.11,4.01,0,1.11,2.9,0,4.01-2.9,1.11-4.01,0Zm118.17,.33c-1.68-1.14-1.68-3.57,0-4.72,.93-.64,2.22-.64,3.15,0,1.68,1.14,1.68,3.57,0,4.72-.93,.64-2.22,.64-3.15,0Zm-55.36,58.58c-1.1,1.11-2.9,1.12-4.01,.02s-1.12-2.9-.02-4.01,2.9-1.12,4.01-.02,1.12,2.9,.02,4.01Zm.37-118.32c-1.14,1.69-3.57,1.7-4.72,.02-.64-.93-.65-2.21-.02-3.15,1.14-1.69,3.57-1.7,4.72-.02,.64,.93,.65,2.21,.02,3.15Z"/></g></svg>