<?xml version="1.0" encoding="UTF-8"?><svg id="Layer_2" xmlns="http://www.w3.org/2000/svg" viewBox="0 0 99.21 99.21"><defs><style>.cls-1{fill:#1c75b9;fill-rule:evenodd;}</style></defs><g id="Raven"><path class="cls-1" d="M14.53,14.53c-19.37,19.37-19.37,50.78,0,70.15s50.78,19.37,70.15,0,19.37-50.78,0-70.15S33.9-4.84,14.53,14.53Zm15.33,68.81c-4.15,4.15-10.88,4.15-15.03,0-4.15-4.15-4.15-10.88,0-15.03s10.88-4.15,15.03,0c4.15,4.15,4.15,10.88,0,15.03Zm21.75-31.73c-1.11,1.11-2.9,1.11-4.01,0s-1.11-2.9,0-4.01,2.9-1.11,4.01,0,1.11,2.9,0,4.01Zm32.75,31.75c-4.15,4.15-10.88,4.15-15.03,0s-4.15-10.88,0-15.03c4.15-4.15,10.88-4.15,15.03,0s4.15,10.88,0,15.03ZM29.88,30.88c-4.15,4.15-10.88,4.15-15.03,0-4.15-4.15-4.15-10.88,0-15.03s10.88-4.15,15.03,0c4.15,4.15,4.15,10.88,0,15.03Zm54.46-.02c-4.15,4.15-10.88,4.15-15.03,0s-4.15-10.88,0-15.03,10.88-4.15,15.03,0c4.15,4.15,4.15,10.88,0,15.03ZM2.83,51.61c-1.11-1.11-1.11-2.9,0-4.01s2.9-1.11,4.01,0,1.11,2.9,0,4.01-2.9,1.11-4.01,0Zm89.97,.36c-1.68-1.14-1.68-3.57,0-4.72,.93-.64,2.22-.64,3.15,0,1.68,1.14,1.68,3.57,0,4.72-.93,.64-2.22,.64-3.15,0Zm-41.18,44.41c-1.1,1.11-2.9,1.12-4.01,.02s-1.12-2.9-.02-4.01,2.9-1.12,4.01-.02,1.12,2.9,.02,4.01Zm.35-89.97c-1.14,1.69-3.57,1.7-4.72,.02-.64-.93-.65-2.21-.02-3.15,1.14-1.69,3.57-1.7,4.72-.02,.64,.93,.65,2.21,.02,3.15Z"/></g></svg>