<?xml version="1.0" encoding="UTF-8"?><svg id="Layer_2" xmlns="http://www.w3.org/2000/svg" viewBox="0 0 155.91 155.91"><defs><style>.cls-1{fill:#262262;fill-rule:evenodd;}</style></defs><g id="Raven"><path class="cls-1" d="M22.83,22.83c-30.44,30.44-30.44,79.8,0,110.24,30.44,30.44,79.8,30.44,110.24,0s30.44-79.8,0-110.24C102.63-7.61,53.27-7.61,22.83,22.83Zm18.25,106.95c-4.15,4.15-10.88,4.15-15.03,0s-4.15-10.88,0-15.03,10.88-4.15,15.03,0c4.15,4.15,4.15,10.88,0,15.03Zm20.12-27.7c-1.66,1.66-4.35,1.66-6.01,0s-1.66-4.35,0-6.01,4.35-1.66,6.01,0,1.66,4.35,0,6.01ZM26.02,26.02c4.15-4.15,10.88-4.15,15.03,0,4.15,4.15,4.15,10.88,0,15.03s-10.88,4.15-15.03,0c-4.15-4.15-4.15-10.88,0-15.03Zm103.89,103.77c-4.15,4.15-10.88,4.15-15.03,0-4.15-4.15-4.15-10.88,0-15.03,4.15-4.15,10.88-4.15,15.03,0,4.15,4.15,4.15,10.88,0,15.03Zm-27.42-27.67c-1.66,1.66-4.35,1.66-6.01,0s-1.66-4.35,0-6.01,4.35-1.66,6.01,0,1.66,4.35,0,6.01Zm-26.54-22.15c-1.11-1.11-1.11-2.9,0-4.01s2.9-1.11,4.01,0,1.11,2.9,0,4.01-2.9,1.11-4.01,0Zm-14.72-19.12c-1.66,1.66-4.35,1.66-6.01,0s-1.66-4.35,0-6.01,4.35-1.66,6.01,0,1.66,4.35,0,6.01Zm41.25-.02c-1.66,1.66-4.35,1.66-6.01,0s-1.66-4.35,0-6.01,4.35-1.66,6.01,0,1.66,4.35,0,6.01Zm27.47-19.78c-4.15,4.15-10.88,4.15-15.03,0-4.15-4.15-4.15-10.88,0-15.03,4.15-4.15,10.88-4.15,15.03,0,4.15,4.15,4.15,10.88,0,15.03ZM4.56,79.72c-1.11-1.11-1.11-2.9,0-4.01s2.9-1.11,4.01,0,1.11,2.9,0,4.01-2.9,1.11-4.01,0Zm143.42,.36c-1.68-1.14-1.68-3.57,0-4.72,.93-.64,2.22-.64,3.15,0,1.68,1.14,1.68,3.57,0,4.72-.93,.64-2.22,.64-3.15,0Zm-68.02,71.04c-1.1,1.11-2.9,1.12-4.01,.02s-1.12-2.9-.02-4.01,2.9-1.12,4.01-.02,1.12,2.9,.02,4.01Zm-.39-143.42c-1.14,1.69-3.57,1.7-4.72,.02-.64-.93-.65-2.21-.02-3.15,1.14-1.69,3.57-1.7,4.72-.02,.64,.93,.65,2.21,.02,3.15Z"/></g></svg>