<?xml version="1.0" encoding="UTF-8"?><svg id="Layer_2" xmlns="http://www.w3.org/2000/svg" viewBox="0 0 70.87 70.87"><defs><style>.cls-1{fill:#27a7de;fill-rule:evenodd;}</style></defs><g id="Raven"><g><path class="cls-1" d="M60.49,10.38c-13.84-13.84-36.27-13.84-50.11,0s-13.84,36.27,0,50.11c13.84,13.84,36.27,13.84,50.11,0s13.84-36.27,0-50.11ZM6.84,37.44c-1.11,1.11-2.9,1.11-4.01,0-1.11-1.11-1.11-2.9,0-4.01s2.9-1.11,4.01,0c1.11,1.11,1.11,2.9,0,4.01ZM33.07,3.21c1.14-1.69,3.57-1.7,4.72-.02,.64,.93,.65,2.21,.02,3.15-1.14,1.69-3.57,1.7-4.72,.02-.64-.93-.65-2.21-.02-3.15Zm-7.77,55.35c-4.15,4.15-10.88,4.15-15.03,0s-4.15-10.88,0-15.03c4.15-4.15,10.88-4.15,15.03,0s4.15,10.88,0,15.03Zm.02-31.25c-4.15,4.15-10.88,4.15-15.03,0s-4.15-10.88,0-15.03c4.15-4.15,10.88-4.15,15.03,0,4.15,4.15,4.15,10.88,0,15.03Zm12.13,40.75c-1.1,1.11-2.9,1.12-4.01,.02-1.11-1.1-1.12-2.9-.02-4.01,1.1-1.11,2.9-1.12,4.01-.02,1.11,1.1,1.12,2.9,.02,4.01Zm1.89-20.5l-5.15-5.15c-1.38-.25-2.7-.9-3.77-1.96s-1.72-2.39-1.96-3.77l-5.15-5.15,8.22-8.22,5.15,5.15c1.38,.25,2.7,.9,3.77,1.96,1.07,1.07,1.72,2.39,1.96,3.77l5.15,5.15-8.22,8.22Zm6.19-35.3c4.15-4.15,10.88-4.15,15.03,0,4.15,4.15,4.15,10.88,0,15.03s-10.88,4.15-15.03,0c-4.15-4.15-4.15-10.88,0-15.03Zm15.05,46.32c-4.15,4.15-10.88,4.15-15.03,0s-4.15-10.88,0-15.03,10.88-4.15,15.03,0c4.15,4.15,4.15,10.88,0,15.03Zm7.02-20.79c-.93,.64-2.22,.64-3.15,0-1.68-1.14-1.68-3.57,0-4.72,.93-.64,2.22-.64,3.15,0,1.68,1.14,1.68,3.57,0,4.72Z"/><path class="cls-1" d="M40.44,40.44c1.7-1.7,2.35-4.05,1.96-6.26l-5.73-5.73c-2.2-.39-4.55,.26-6.26,1.96s-2.35,4.05-1.96,6.26l5.73,5.73c2.2,.39,4.55-.26,6.26-1.96Zm-7.02-7.02c1.11-1.11,2.9-1.11,4.01,0,1.11,1.11,1.11,2.9,0,4.01-1.11,1.11-2.9,1.11-4.01,0s-1.11-2.9,0-4.01Z"/></g></g></svg>