<?xml version="1.0" encoding="UTF-8"?><svg id="Layer_2" xmlns="http://www.w3.org/2000/svg" viewBox="0 0 493.91 155.91"><defs><style>.cls-1{fill:#2b398d;}.cls-1,.cls-2,.cls-3,.cls-4{fill-rule:evenodd;}.cls-2{fill:#27a7de;}.cls-3{fill:#262262;}.cls-4{fill:#1c75b9;}</style></defs><g id="Raven"><path class="cls-1" d="M256.18,15.14c-35.22,0-63.78,28.56-63.78,63.78s28.56,63.78,63.78,63.78,63.78-28.56,63.78-63.78-28.56-63.78-63.78-63.78Zm-56.81,68.03c-2.35,0-4.25-1.9-4.25-4.25s1.9-4.25,4.25-4.25,4.25,1.9,4.25,4.25-1.9,4.25-4.25,4.25Zm27.63-.03c-2.35,0-4.25-1.9-4.25-4.25s1.9-4.25,4.25-4.25,4.25,1.9,4.25,4.25-1.9,4.25-4.25,4.25Zm28.84-65.54c2.35,0,4.25,1.9,4.25,4.25s-1.9,4.25-4.25,4.25-4.25-1.9-4.25-4.25,1.9-4.25,4.25-4.25Zm.09,122.57c-2.35,0-4.25-1.9-4.25-4.25s1.9-4.25,4.25-4.25,4.25,1.9,4.25,4.25-1.9,4.25-4.25,4.25Zm.25-27.82c-2.35,0-4.25-1.9-4.25-4.25s1.9-4.25,4.25-4.25,4.25,1.9,4.25,4.25-1.9,4.25-4.25,4.25Zm-2.83-33.4c0-1.57,1.27-2.83,2.83-2.83s2.83,1.27,2.83,2.83-1.27,2.83-2.83,2.83-2.83-1.27-2.83-2.83Zm2.83-24.96c-2.35,0-4.25-1.9-4.25-4.25s1.9-4.25,4.25-4.25,4.25,1.9,4.25,4.25-1.9,4.25-4.25,4.25Zm29.18,29.15c-2.35,0-4.25-1.9-4.25-4.25s1.9-4.25,4.25-4.25,4.25,1.9,4.25,4.25-1.9,4.25-4.25,4.25Zm27.58,.06c-2.35,0-4.25-1.9-4.25-4.25s1.9-4.25,4.25-4.25,4.25,1.9,4.25,4.25-1.9,4.25-4.25,4.25Z"/><path class="cls-4" d="M126.69,29.32c-27.4,0-49.61,22.21-49.61,49.61s22.21,49.61,49.61,49.61,49.61-22.21,49.61-49.61-22.21-49.61-49.61-49.61Zm-44.18,53.83c-2.35,0-4.25-1.9-4.25-4.25s1.9-4.25,4.25-4.25,4.25,1.9,4.25,4.25-1.9,4.25-4.25,4.25Zm44.18-1.39c-1.57,0-2.83-1.27-2.83-2.83s1.27-2.83,2.83-2.83,2.83,1.27,2.83,2.83-1.27,2.83-2.83,2.83Zm0,45.6c-2.35,0-4.25-1.9-4.25-4.25s1.9-4.25,4.25-4.25,4.25,1.9,4.25,4.25-1.9,4.25-4.25,4.25Zm0-88.36c-2.35,0-4.25-1.9-4.25-4.25s1.9-4.25,4.25-4.25,4.25,1.9,4.25,4.25-1.9,4.25-4.25,4.25Zm44.18,44.15c-2.35,0-4.25-1.9-4.25-4.25s1.9-4.25,4.25-4.25,4.25,1.9,4.25,4.25-1.9,4.25-4.25,4.25Z"/><path class="cls-2" d="M35.43,43.49C15.86,43.49,0,59.35,0,78.92s15.86,35.43,35.43,35.43,35.43-15.86,35.43-35.43-15.86-35.43-35.43-35.43Zm0,2c2.35,0,4.25,1.9,4.25,4.25s-1.9,4.25-4.25,4.25-4.25-1.9-4.25-4.25,1.9-4.25,4.25-4.25ZM6.25,83.15c-2.35,0-4.25-1.9-4.25-4.25s1.9-4.25,4.25-4.25,4.25,1.9,4.25,4.25-1.9,4.25-4.25,4.25Zm29.18,29.21c-2.35,0-4.25-1.9-4.25-4.25s1.9-4.25,4.25-4.25,4.25,1.9,4.25,4.25-1.9,4.25-4.25,4.25Zm5.81-22.09h-11.62v-22.68h11.62v22.68Zm23.37-7.12c-2.35,0-4.25-1.9-4.25-4.25s1.9-4.25,4.25-4.25,4.25,1.9,4.25,4.25-1.9,4.25-4.25,4.25Z"/><path class="cls-3" d="M415.96,0c-43.05,0-77.95,34.9-77.95,77.95s34.9,77.95,77.95,77.95,77.95-34.9,77.95-77.95S459.01,0,415.96,0Zm-66.47,82.2c-2.35,0-4.25-1.9-4.25-4.25s1.9-4.25,4.25-4.25,4.25,1.9,4.25,4.25-1.9,4.25-4.25,4.25Zm37.56,.97c-2.35,0-4.25-1.9-4.25-4.25s1.9-4.25,4.25-4.25,4.25,1.9,4.25,4.25-1.9,4.25-4.25,4.25ZM415.96,6.64c2.35,0,4.25,1.9,4.25,4.25s-1.9,4.25-4.25,4.25-4.25-1.9-4.25-4.25,1.9-4.25,4.25-4.25Zm.09,142.57c-2.35,0-4.25-1.9-4.25-4.25s1.9-4.25,4.25-4.25,4.25,1.9,4.25,4.25-1.9,4.25-4.25,4.25Zm.18-36.82c-2.35,0-4.25-1.9-4.25-4.25s1.9-4.25,4.25-4.25,4.25,1.9,4.25,4.25-1.9,4.25-4.25,4.25Zm-3.11-34.43c0-1.57,1.27-2.83,2.83-2.83s2.83,1.27,2.83,2.83-1.27,2.83-2.83,2.83-2.83-1.27-2.83-2.83Zm3.11-23.93c-2.35,0-4.25-1.9-4.25-4.25s1.9-4.25,4.25-4.25,4.25,1.9,4.25,4.25-1.9,4.25-4.25,4.25Zm29.18,29.15c-2.35,0-4.25-1.9-4.25-4.25s1.9-4.25,4.25-4.25,4.25,1.9,4.25,4.25-1.9,4.25-4.25,4.25Zm37.65-.94c-2.35,0-4.25-1.9-4.25-4.25s1.9-4.25,4.25-4.25,4.25,1.9,4.25,4.25-1.9,4.25-4.25,4.25Z"/></g></svg>