<?xml version="1.0" encoding="UTF-8"?><svg id="Layer_2" xmlns="http://www.w3.org/2000/svg" viewBox="0 0 142.14 26.78"><defs><style>.cls-1{fill:#84e3d4;}</style></defs><g id="Raven"><path class="cls-1" d="M129.27,.08C128.92,.34,13.27,.27,12.88,0-5.16-.21-3.92,27.34,14.52,26.59c-.08-13.23,23.97-13.83,23.96,.14,2.05,0,63.11,.04,65.16,.04,.01-13.98,24.07-13.34,23.96-.11,18.43,.78,19.72-26.77,1.68-26.59ZM9.32,17.32c-6.49-.03-6.48-9.9,0-9.92,6.49,.03,6.48,9.9,0,9.92Zm40.09-2.52c-1.84,.03-1.84-2.86,0-2.83,1.84-.03,1.84,2.86,0,2.83Zm43.32,.04c-1.84,.03-1.84-2.86,0-2.83,1.84-.03,1.84,2.86,0,2.83Zm40.09,2.57c-6.49-.03-6.48-9.9,0-9.92,6.49,.03,6.48,9.9,0,9.92Z"/></g></svg>