<?xml version="1.0" encoding="UTF-8"?><svg id="Layer_2" xmlns="http://www.w3.org/2000/svg" viewBox="0 0 166.09 26.86"><defs><style>.cls-1{fill:#f4911d;fill-rule:evenodd;}</style></defs><g id="Raven"><g><path class="cls-1" d="M13.67,0c.74,.3,45.04,1.84,69.42,1.82l-.02,25.03c-9.79,0-34.81-.13-34.81-.13,0-13.98-24.05-13.37-23.96-.14C-7.52,26.74-4.82,0,13.67,0ZM61.06,15.32c2.46,.04,2.46-3.72,0-3.68-2.46-.04-2.46,3.72,0,3.68Zm-54.41-.18c3.74,.62,4.63-5.04,.92-5.57-3.74-.63-4.63,5.04-.92,5.57Z"/><path class="cls-1" d="M152.42,0c-.74,.3-45.04,1.84-69.42,1.82l.02,25.03c9.79,0,34.81-.13,34.81-.13,0-13.98,24.05-13.37,23.96-.14C173.61,26.74,170.91,0,152.42,0Zm-47.39,15.32c-2.46,.04-2.46-3.72,0-3.68,2.46-.04,2.46,3.72,0,3.68Zm54.41-.18c-3.74,.62-4.63-5.04-.92-5.57,3.74-.63,4.63,5.04,.92,5.57Z"/></g></g></svg>