<?xml version="1.0" encoding="UTF-8"?>
<svg id="Layer_2" data-name="Layer 2" xmlns="http://www.w3.org/2000/svg" viewBox="0 0 120.14 26.78">
  <defs>
    <style>
      .cls-1 {
        fill: #85e4d5;
      }
    </style>
  </defs>
  <g id="Raven">
    <path class="cls-1" d="M107.27,.08C106.92,.34,13.27,.27,12.88,0-5.16-.21-3.92,27.34,14.52,26.59c-.08-13.23,19.97-13.83,19.96,.14,2.05,0,49.11,.04,51.16,.04,.01-13.98,20.07-13.34,19.96-.11C124.03,27.45,125.32-.1,107.27,.08ZM10.32,17.32c-6.49-.03-6.48-9.9,0-9.92,6.49,.03,6.48,9.9,0,9.92Zm29.09-2.52c-1.84,.03-1.84-2.86,0-2.83,1.84-.03,1.84,2.86,0,2.83Zm41.32,.04c-1.84,.03-1.84-2.86,0-2.83,1.84-.03,1.84,2.86,0,2.83Zm29.09,2.57c-6.49-.03-6.48-9.9,0-9.92,6.49,.03,6.48,9.9,0,9.92Z"/>
  </g>
</svg>